<svg width="24" height="24" viewBox="0 0 24 24" fill="none" xmlns="http://www.w3.org/2000/svg">
<path d="M9.78076 1.81934C11.2288 1.72734 12.7633 1.72734 14.2183 1.81934C18.7672 2.1244 22.4175 5.82194 22.7095 10.4209C22.7614 11.2897 22.7614 12.1674 22.7095 13.0332C22.4165 17.6342 18.7672 21.3317 14.2212 21.6367C12.7632 21.7387 11.2259 21.7387 9.77686 21.6367C9.19793 21.6007 8.58415 21.4602 8.05322 21.2412L7.93018 21.1904C7.79121 21.1334 7.6494 21.0742 7.54541 21.0352C7.46451 21.0901 7.35732 21.1663 7.25244 21.2402L7.18994 21.2842C6.31794 21.9332 5.31907 22.25 4.14307 22.25L4.14502 22.248C4.09107 22.248 4.03688 22.2471 3.98193 22.2451L3.90381 22.2432C3.22099 22.2222 2.62987 22.2036 2.27393 21.6338C2.26794 21.6238 2.26233 21.6125 2.25635 21.6025C1.91935 21.0005 2.21361 20.4467 2.62061 19.6797L2.63818 19.6455C2.97117 19.0205 3.29778 18.1557 2.98779 17.5547C1.95682 16.0187 1.38746 14.4981 1.29346 13.0352C1.24149 12.1664 1.24148 11.2886 1.29346 10.4229C1.58645 5.82196 5.23492 2.12349 9.78076 1.81934ZM14.1216 3.31348C12.7307 3.22648 11.2623 3.22649 9.87842 3.31348C6.08342 3.56748 3.03455 6.66269 2.78955 10.5127C2.74156 11.3046 2.74156 12.1455 2.78955 12.9395C2.86655 14.1404 3.3595 15.4212 4.25244 16.7441C4.26444 16.7621 4.2766 16.7818 4.2876 16.8018C4.81636 17.7577 4.70725 18.9509 3.96338 20.3477L3.94482 20.3809C3.88194 20.4987 3.81618 20.6235 3.75928 20.7363V20.7373C3.82209 20.7403 3.88787 20.7412 3.95068 20.7432L4.02393 20.7451C4.94293 20.7651 5.65025 20.5602 6.30225 20.0742C6.30709 20.0713 6.31106 20.0674 6.31592 20.0645L6.38428 20.0166C6.82023 19.7066 7.03942 19.5509 7.3374 19.5049C7.66332 19.455 7.9445 19.5708 8.50439 19.8018L8.62646 19.8516C9.00341 20.0075 9.45858 20.1107 9.87646 20.1367C11.2632 20.2347 12.7279 20.2347 14.1177 20.1367H14.1206C17.9184 19.8825 20.9664 16.7864 21.2124 12.9375C21.2604 12.1456 21.2604 11.3047 21.2124 10.5107C20.9674 6.66389 17.9184 3.56868 14.1216 3.31348ZM8.00928 10.9932C8.5612 10.9933 9.00928 11.4412 9.00928 11.9932C9.00906 12.5449 8.56106 12.9931 8.00928 12.9932C7.45741 12.9932 7.00461 12.545 7.00439 11.9932C7.00439 11.4412 7.44751 10.9932 7.99951 10.9932H8.00928ZM12.0005 10.9932C12.5523 10.9934 13.0005 11.4413 13.0005 11.9932C13.0003 12.5449 12.5522 12.993 12.0005 12.9932C11.4486 12.9932 11.0007 12.545 11.0005 11.9932C11.0005 11.4412 11.4475 10.9932 12.0005 10.9932ZM15.9995 10.9932C16.5513 10.9934 16.9995 11.4413 16.9995 11.9932C16.9993 12.5449 16.5512 12.993 15.9995 12.9932C15.4476 12.9932 14.9948 12.545 14.9946 11.9932C14.9946 11.4413 15.437 10.9934 15.9888 10.9932H15.9995Z" fill="#171717"/>
</svg>
