<svg width="200" height="200" viewBox="0 0 200 200" fill="none" xmlns="http://www.w3.org/2000/svg">
<path d="M81.7439 100.001L70.5742 88.8311L59.4045 100.001L70.5742 111.17L81.7439 100.001Z" fill="#FFF9EE"/>
<path d="M75.941 98.6515V98.6404L75.9428 98.6293L75.9373 98.6237V98.6126L75.9391 98.6015L75.9354 98.5848L75.941 98.5793L75.9373 98.5626C75.9243 98.3589 75.8651 98.1756 75.7614 98.0108C75.6558 97.8459 75.5169 97.7182 75.3428 97.6274C75.078 97.483 74.7817 97.4515 74.4558 97.533L75.0188 97.0719C75.0354 97.0589 75.0428 97.0459 75.0447 97.0311C75.0484 96.9867 75.0299 96.9645 74.9854 96.9589C74.8688 96.9552 74.7447 96.9293 74.6132 96.883C74.5243 96.8478 74.3873 96.7904 74.2002 96.7089C74.1873 96.6996 74.1725 96.6996 74.1558 96.7052C74.1132 96.72 74.0984 96.7459 74.1095 96.783C74.1447 96.8737 74.1465 96.9496 74.1151 97.0089C74.0928 97.0515 74.0447 97.1071 73.9706 97.1737C73.9447 97.0348 73.8836 96.9052 73.7854 96.7793L73.7762 96.7682C73.7762 96.7682 73.7669 96.7589 73.7614 96.7533L73.791 96.4608V96.4367L73.7947 96.4293V96.4052L73.7984 96.3978V96.383L73.8002 96.3756V96.3608L73.8021 96.3533V96.3293L73.8058 96.3219V96.3071L73.8076 96.2996L73.8021 96.283V96.2756V96.2682V96.2441L73.8058 96.2293V96.2219L73.8002 96.2126C73.791 95.9311 73.7225 95.6867 73.5928 95.4756L73.5873 95.4589L73.5799 95.4496L73.5743 95.433H73.5669C73.5632 95.4219 73.5577 95.4126 73.5539 95.4071L73.5465 95.3978L73.5391 95.3885L73.5317 95.3793L73.5243 95.37L73.5169 95.3608L73.5095 95.3515V95.3441H73.5021L73.4947 95.3348L73.4873 95.3256L73.4799 95.3163L73.4725 95.307L73.4651 95.2978L73.4577 95.2885L73.4428 95.2719L73.4354 95.2626L73.428 95.2533L73.4206 95.2441L73.4058 95.2348L73.3984 95.2256L73.391 95.2163H73.3836L73.3762 95.2071L73.3688 95.1978L73.3539 95.1885V95.1811L73.341 95.1719C73.1891 95.0367 73.0169 94.9496 72.8262 94.9071C72.6354 94.8645 72.4465 94.8737 72.2595 94.933C71.9706 95.0182 71.7391 95.2052 71.5651 95.4941L71.6373 94.77C71.6391 94.7496 71.6373 94.733 71.6262 94.7219C71.5984 94.6885 71.5669 94.6848 71.5336 94.7126C71.4484 94.7922 71.3428 94.8626 71.2169 94.9219C71.1299 94.9589 70.9928 95.0163 70.8039 95.0904C70.7873 95.0941 70.7762 95.1034 70.7706 95.1182C70.7502 95.1571 70.7576 95.1867 70.7928 95.2052C70.8817 95.2459 70.9373 95.2978 70.9558 95.3626C70.9706 95.4089 70.9743 95.4811 70.9706 95.5811C70.8558 95.5015 70.7188 95.4515 70.5614 95.433H70.5465C70.5465 95.433 70.5336 95.433 70.5262 95.433L70.3391 95.2052L70.3243 95.1867L70.3188 95.1811L70.3039 95.1626L70.2984 95.157L70.2891 95.1459L70.2836 95.1404L70.2743 95.1293L70.2688 95.1237L70.2539 95.1052L70.2484 95.0996L70.2391 95.0885L70.2336 95.083L70.2169 95.0756L70.2114 95.07L70.2058 95.0645L70.191 95.0459L70.1817 95.0348L70.1762 95.0293H70.1651C69.9614 94.8348 69.7373 94.7108 69.4984 94.6533L69.4817 94.6459H69.4706L69.4558 94.6385L69.4502 94.6441C69.4391 94.6385 69.4299 94.6367 69.4243 94.6348H69.4132L69.4021 94.633H69.391L69.3799 94.6311H69.3688L69.3576 94.6293L69.3521 94.6237L69.3465 94.6293H69.3354L69.3243 94.6274H69.3132L69.291 94.6237H69.2799L69.2688 94.6219H69.2576L69.2465 94.62H69.2354L69.2243 94.6182L69.2076 94.6219H69.1965L69.1854 94.62L69.1799 94.6256H69.1688L69.1577 94.6237L69.141 94.6274L69.1354 94.6219L69.1188 94.6256C68.9151 94.6385 68.7317 94.6978 68.5669 94.8015C68.4021 94.9071 68.2743 95.0459 68.1836 95.22C68.0391 95.4848 68.0076 95.7811 68.0891 96.1089L67.628 95.5459C67.6151 95.5293 67.6021 95.5219 67.5873 95.52C67.5428 95.5163 67.5206 95.5348 67.5151 95.5793C67.5114 95.6959 67.4854 95.82 67.4391 95.9515C67.4039 96.0404 67.3465 96.1774 67.2669 96.3645C67.2576 96.3793 67.2558 96.3922 67.2632 96.4089C67.278 96.4515 67.3039 96.4663 67.341 96.4552C67.4317 96.42 67.5076 96.4182 67.5669 96.4496C67.6095 96.4719 67.6632 96.52 67.7317 96.5941C67.5947 96.62 67.4632 96.6811 67.3373 96.7793L67.3262 96.7885C67.3262 96.7885 67.3169 96.7978 67.3114 96.8033L67.0188 96.7737H66.9947L66.9873 96.77H66.9632L66.9558 96.7663H66.941L66.9336 96.7645H66.9188L66.9114 96.7626H66.8891L66.8817 96.7589H66.8669L66.8595 96.7571L66.8428 96.7626H66.8354H66.828H66.8039L66.7891 96.7589H66.7817L66.7725 96.7645C66.491 96.7719 66.2465 96.8422 66.0354 96.9719L66.0188 96.9774L66.0095 96.9848L65.9928 96.9904V96.9978C65.9817 97.0015 65.9725 97.007 65.9669 97.0108L65.9577 97.0182L65.9484 97.0256L65.9391 97.033L65.9299 97.0404L65.9206 97.0478L65.9114 97.0552H65.9039V97.0626L65.8947 97.07L65.8854 97.0774L65.8762 97.0848L65.8669 97.0922L65.8577 97.0996L65.8484 97.1071L65.8391 97.1145L65.8299 97.1219L65.8206 97.1293L65.8114 97.1367L65.8021 97.1441L65.7928 97.1589L65.7836 97.1663L65.7743 97.1737V97.1811L65.7576 97.1959L65.7484 97.2108H65.741L65.7317 97.2256C65.5965 97.3774 65.5095 97.5496 65.4669 97.7404C65.4243 97.9311 65.4336 98.12 65.4928 98.307C65.578 98.5959 65.7651 98.8274 66.0539 99.0015L65.3299 98.9293C65.3095 98.9274 65.2928 98.9293 65.2817 98.9404C65.2484 98.9682 65.2447 98.9997 65.2725 99.033C65.3521 99.1182 65.4225 99.2237 65.4817 99.3496C65.5206 99.4367 65.5762 99.5737 65.6502 99.7645C65.6539 99.7811 65.6632 99.7922 65.678 99.7978C65.7169 99.8182 65.7465 99.8089 65.7651 99.7756C65.8058 99.6867 65.8576 99.6311 65.9206 99.6126C65.9669 99.5978 66.0391 99.5941 66.1391 99.5978C66.0595 99.7126 66.0095 99.8496 65.991 100.007V100.022C65.991 100.022 65.991 100.035 65.991 100.042L65.7632 100.229L65.7447 100.244L65.7391 100.25L65.7206 100.264L65.7151 100.27L65.7039 100.279L65.6984 100.285L65.6873 100.294L65.6817 100.3L65.6632 100.314L65.6576 100.32L65.6465 100.329L65.641 100.335L65.6336 100.35L65.628 100.355L65.6225 100.361L65.6039 100.376L65.5928 100.385L65.5873 100.39V100.401C65.3928 100.605 65.2688 100.827 65.2114 101.068L65.2039 101.083V101.094L65.1947 101.111L65.2002 101.116C65.1947 101.127 65.1928 101.135 65.1928 101.142V101.153L65.191 101.164V101.176L65.1873 101.198V101.209L65.1799 101.214L65.1854 101.22V101.231L65.1836 101.242V101.253L65.1817 101.264V101.276L65.1799 101.287V101.309L65.1762 101.32V101.331L65.1743 101.342L65.178 101.359V101.37L65.1762 101.381L65.1817 101.387V101.398L65.1799 101.409L65.1836 101.426L65.178 101.431L65.1817 101.448C65.1947 101.651 65.2539 101.835 65.3576 102C65.4632 102.164 65.6021 102.292 65.7762 102.383C66.041 102.527 66.3373 102.559 66.6632 102.477L66.1002 102.939C66.0836 102.951 66.0762 102.966 66.0743 102.979C66.0706 103.024 66.0891 103.046 66.1336 103.051C66.2502 103.055 66.3743 103.081 66.5058 103.127C66.5947 103.163 66.7317 103.22 66.9169 103.301C66.9299 103.311 66.9447 103.311 66.9614 103.305C67.0039 103.29 67.0188 103.264 67.0076 103.227C66.9725 103.137 66.9706 103.061 67.0021 103.002C67.0243 102.959 67.0725 102.903 67.1465 102.837C67.1725 102.976 67.2336 103.105 67.3317 103.231L67.341 103.242C67.341 103.242 67.3502 103.252 67.3558 103.257L67.3262 103.55V103.572L67.3225 103.579V103.603L67.3188 103.611V103.626L67.3151 103.648V103.655L67.3114 103.679V103.687L67.3095 103.701V103.709L67.3151 103.726V103.733V103.74V103.764L67.3114 103.779V103.787L67.3169 103.796C67.3262 104.077 67.3947 104.322 67.5243 104.533L67.5299 104.55L67.5373 104.559L67.5428 104.576H67.5502C67.5539 104.587 67.5595 104.596 67.5632 104.601L67.5706 104.611L67.578 104.62L67.5854 104.629L67.5928 104.639L67.6002 104.648L67.6076 104.657V104.664H67.6151L67.6225 104.674L67.6299 104.683L67.6373 104.692L67.6521 104.709L67.6595 104.718L67.6669 104.727L67.6743 104.737L67.6817 104.746L67.6891 104.755L67.6965 104.764L67.7114 104.774L67.7188 104.783L67.7262 104.792H67.7336L67.741 104.801L67.7484 104.811L67.7632 104.82V104.827L67.7762 104.837C67.928 104.972 68.1002 105.059 68.291 105.101C68.4817 105.144 68.6706 105.135 68.8576 105.076C69.1465 104.99 69.378 104.803 69.5521 104.514L69.4799 105.239C69.478 105.259 69.4799 105.276 69.491 105.287C69.5188 105.32 69.5502 105.324 69.5836 105.296C69.6688 105.216 69.7743 105.146 69.9002 105.087C69.9873 105.048 70.1243 104.992 70.3132 104.918C70.3299 104.914 70.341 104.905 70.3465 104.89C70.3669 104.851 70.3595 104.822 70.3243 104.803C70.2354 104.763 70.1799 104.711 70.1614 104.646C70.1465 104.6 70.1428 104.527 70.1465 104.427C70.2614 104.507 70.3984 104.557 70.5558 104.576H70.5706C70.5706 104.576 70.5836 104.576 70.591 104.576L70.778 104.803L70.7928 104.822L70.7984 104.827L70.8132 104.846L70.8188 104.851L70.828 104.863L70.8336 104.868L70.8428 104.879L70.8484 104.885L70.8632 104.903L70.8688 104.909L70.878 104.92L70.8836 104.926L70.9002 104.933L70.9058 104.939L70.9114 104.944L70.9262 104.963L70.9354 104.974L70.941 104.979H70.9521C71.1558 105.174 71.3799 105.298 71.6188 105.355L71.6354 105.363H71.6465L71.6614 105.37L71.6669 105.364C71.678 105.37 71.6873 105.372 71.6928 105.374H71.7039L71.7151 105.376H71.7373L71.7484 105.379H71.7595L71.7651 105.387L71.7706 105.381H71.7817L71.7928 105.383H71.8039L71.8151 105.385H71.8262L71.8373 105.387H71.8484L71.8595 105.389H71.8706L71.8817 105.39H71.8928L71.9095 105.387H71.9206L71.9317 105.389L71.9373 105.383H71.9484L71.9595 105.385L71.9762 105.381L71.9817 105.387L71.9984 105.383C72.2021 105.37 72.3854 105.311 72.5502 105.207C72.7151 105.101 72.8428 104.963 72.9336 104.789C73.078 104.524 73.1095 104.227 73.028 103.9L73.4891 104.463C73.5021 104.477 73.5151 104.487 73.5299 104.489C73.5743 104.492 73.5965 104.474 73.6021 104.429C73.6058 104.313 73.6317 104.189 73.678 104.057C73.7132 103.968 73.7706 103.831 73.8502 103.646C73.8595 103.631 73.8614 103.618 73.8539 103.601C73.8391 103.559 73.8132 103.544 73.7762 103.555C73.6854 103.59 73.6095 103.592 73.5502 103.561C73.5077 103.539 73.4539 103.49 73.3854 103.416C73.5225 103.39 73.6539 103.329 73.7799 103.231L73.791 103.222C73.791 103.222 73.8002 103.213 73.8058 103.207L74.0984 103.237H74.1225L74.1299 103.24H74.1539L74.1614 103.244H74.1762L74.1836 103.246H74.1984L74.2058 103.248H74.228L74.2354 103.251H74.2502L74.2576 103.253L74.2743 103.248H74.2891L74.3132 103.251H74.328L74.3354 103.253L74.3447 103.246C74.6262 103.239 74.8706 103.168 75.0817 103.039L75.0984 103.033L75.1076 103.026L75.1243 103.02V103.013C75.1354 103.009 75.1447 103.003 75.1502 103L75.1595 102.992L75.1688 102.985L75.178 102.977L75.1947 102.963L75.2039 102.955H75.2114V102.948L75.2206 102.94L75.2299 102.933L75.2391 102.926L75.2484 102.918L75.2651 102.903L75.2743 102.896L75.2836 102.889L75.2928 102.881L75.3021 102.874L75.3114 102.866L75.3206 102.852L75.3299 102.844L75.3391 102.837V102.829L75.3484 102.822L75.3576 102.814L75.3669 102.8H75.3743L75.3836 102.785C75.5188 102.633 75.6058 102.461 75.6484 102.27C75.691 102.079 75.6817 101.89 75.6225 101.703C75.5373 101.414 75.3502 101.183 75.0614 101.009L75.7854 101.081C75.8058 101.083 75.8225 101.081 75.8336 101.07C75.8669 101.042 75.8706 101.011 75.8428 100.977C75.7632 100.892 75.6928 100.787 75.6336 100.661C75.5947 100.574 75.5391 100.437 75.4651 100.248C75.4614 100.231 75.4521 100.22 75.4373 100.214C75.3984 100.194 75.3688 100.203 75.3502 100.237C75.3095 100.326 75.2576 100.381 75.1947 100.4C75.1484 100.414 75.0762 100.418 74.9762 100.414C75.0558 100.3 75.1058 100.163 75.1243 100.005V99.9904C75.1243 99.9904 75.1243 99.9774 75.1243 99.97L75.3521 99.783L75.3706 99.7682L75.3762 99.7626L75.3947 99.7478L75.4002 99.7422L75.4114 99.733L75.4169 99.7274L75.428 99.7182L75.4336 99.7126L75.4521 99.6978L75.4577 99.6922L75.4688 99.683L75.4743 99.6774L75.4817 99.6626L75.4873 99.6571L75.4928 99.6515L75.5114 99.6367L75.5225 99.6274L75.528 99.6219V99.6108C75.7225 99.4071 75.8465 99.1848 75.9039 98.9441L75.9114 98.9293V98.9182L75.9206 98.9015L75.9151 98.8959C75.9206 98.8848 75.9225 98.8774 75.9225 98.87V98.8589L75.9243 98.8478V98.8367L75.9262 98.8256V98.8145L75.928 98.8033L75.9336 98.7978L75.928 98.7922V98.7811L75.9299 98.77V98.7478L75.9336 98.7367V98.7256L75.9354 98.7145V98.7033L75.9373 98.6922V98.6811L75.9391 98.67L75.9354 98.6533L75.941 98.6515ZM71.5373 95.8959C71.6854 95.4534 71.9428 95.1793 72.3132 95.07C72.3947 95.0422 72.4762 95.0274 72.5595 95.0237C72.5743 95.0237 72.5873 95.0274 72.5984 95.0274C72.8188 95.0496 72.9854 95.1571 73.0947 95.3496C73.2095 95.5478 73.2577 95.8256 73.2373 96.1811C73.2336 96.2274 73.228 96.2793 73.2225 96.3348L73.0873 97.683L73.0632 97.9219L72.8262 98.1163C72.691 98.0385 72.5539 97.9145 72.4151 97.7441L71.778 96.9645C71.778 96.9645 71.7725 96.9571 71.7688 96.9533L71.4706 96.5885L71.5391 95.8941L71.5373 95.8959ZM68.3188 95.2848C68.3558 95.207 68.4039 95.1385 68.4614 95.0793C68.4725 95.07 68.4836 95.0608 68.491 95.0552C68.6632 94.9145 68.8558 94.8737 69.0706 94.9311C69.2928 94.9904 69.5225 95.1515 69.7595 95.4182C69.7891 95.4534 69.8225 95.4941 69.8577 95.5385L70.7169 96.5867L70.8688 96.7719L70.8391 97.0756C70.6891 97.1163 70.5039 97.1256 70.2854 97.1033L69.2836 97.0034C69.2836 97.0034 69.2725 97.0034 69.2688 97.0034L68.7984 96.9571L68.3577 96.4182C68.1502 96.0015 68.1373 95.6237 68.3225 95.2867L68.3188 95.2848ZM67.678 100.29L67.578 101.292C67.578 101.292 67.578 101.303 67.578 101.307L67.5317 101.777L66.9928 102.218C66.5762 102.426 66.1984 102.439 65.8614 102.253C65.7836 102.216 65.7151 102.168 65.6558 102.113C65.6465 102.101 65.6373 102.09 65.6317 102.083C65.491 101.911 65.4502 101.718 65.5076 101.503C65.5669 101.281 65.7299 101.052 65.9947 100.814C66.0299 100.785 66.0706 100.751 66.1151 100.716L67.1632 99.857L67.3484 99.7052L67.6521 99.7348C67.6928 99.8848 67.7021 100.07 67.6799 100.289L67.678 100.29ZM67.541 98.7959C67.541 98.7959 67.5336 98.8033 67.5299 98.8052L67.1651 99.1033L66.4706 99.0348C66.028 98.8867 65.7539 98.6293 65.6447 98.2608C65.6169 98.1793 65.6002 98.0978 65.5984 98.0145C65.5984 97.9997 65.6021 97.9867 65.6021 97.9756C65.6243 97.7552 65.7317 97.5885 65.9243 97.4793C66.1225 97.3645 66.4002 97.3163 66.7558 97.3367C66.8021 97.3422 66.8539 97.3459 66.9095 97.3515L68.2576 97.4867L68.4965 97.5108L68.691 97.7478C68.6132 97.883 68.4891 98.02 68.3188 98.1589L67.5391 98.7959H67.541ZM69.6095 104.103C69.4614 104.546 69.2039 104.82 68.8336 104.929C68.7521 104.957 68.6706 104.972 68.5873 104.976C68.5725 104.976 68.5595 104.972 68.5484 104.972C68.328 104.95 68.1614 104.842 68.0521 104.65C67.9373 104.451 67.8891 104.174 67.9095 103.818C67.9132 103.772 67.9188 103.72 67.9243 103.664L68.0595 102.316L68.0836 102.077L68.3206 101.883C68.4558 101.961 68.5928 102.085 68.7317 102.255L69.3688 103.035C69.3688 103.035 69.3743 103.042 69.378 103.046L69.6762 103.411L69.6077 104.105L69.6095 104.103ZM70.2706 101.735H70.2651V101.739H70.2595V101.744H70.2539V101.748H70.2484L70.2428 101.757L70.2373 101.763L70.2317 101.768L70.2262 101.774L70.2206 101.779H70.2151C70.2151 101.779 70.2058 101.79 70.2039 101.794L70.1984 101.803L70.1928 101.809L70.1873 101.814L70.1817 101.82C70.1817 101.82 70.1725 101.833 70.1632 101.84C70.1595 101.844 70.1558 101.848 70.1502 101.855L70.1447 101.861L70.1391 101.87L70.1336 101.876L70.128 101.885L70.1225 101.89V101.896L70.1169 101.902L70.1114 101.911V101.916L70.1039 101.926L70.0984 101.935L70.0743 101.905L70.0669 101.898L70.0539 101.881L70.0465 101.874L70.0132 101.833L70.0002 101.816L69.9965 101.813L69.9891 101.803L69.9817 101.796L69.978 101.792L69.9651 101.776L69.9558 101.763L69.9521 101.759L69.9447 101.752L69.9354 101.739L69.9262 101.726L69.9225 101.722L69.9095 101.705L69.9058 101.701L69.8965 101.689L69.8873 101.676L69.8836 101.672L69.8706 101.655L69.8614 101.642L69.8577 101.639L69.8521 101.631L69.8447 101.624L69.8354 101.611L69.8317 101.607L69.828 101.603L69.8206 101.596L69.8169 101.592L69.8095 101.585L69.8058 101.581L69.7984 101.574L69.7947 101.57L69.791 101.566L69.7836 101.557L69.778 101.55L69.7743 101.546L69.7688 101.537L69.7651 101.533H69.7576L69.7502 101.524L69.7428 101.514L69.7299 101.498L69.7225 101.489L69.7188 101.485L69.7114 101.476L69.7039 101.468L69.7002 101.464L69.6965 101.461L69.6928 101.457L69.6854 101.45L69.6817 101.446L69.678 101.442L69.6706 101.433L69.6669 101.429L69.6632 101.426L69.6558 101.416L69.6521 101.413L69.6484 101.409L69.6447 101.405L69.641 101.401L69.6317 101.389L69.628 101.385L69.6243 101.381L69.6206 101.377L69.6132 101.37L69.6095 101.366L69.6021 101.359L69.5891 101.342L69.5817 101.335L69.578 101.331L69.5743 101.327L69.5706 101.324L69.5669 101.32L69.5632 101.316L69.5558 101.307L69.5484 101.3L69.5373 101.294L69.5299 101.285L69.5225 101.277L69.5188 101.274L69.5151 101.27L69.5114 101.266H69.5039L69.5002 101.261L69.4965 101.257L69.4928 101.253L69.4891 101.25L69.4854 101.246H69.478L69.4743 101.24L69.4706 101.237L69.4669 101.233L69.4595 101.226L69.4558 101.229L69.4521 101.226L69.4484 101.222L69.4447 101.218L69.441 101.214L69.4373 101.218L69.4336 101.214C69.4336 101.214 69.4225 101.205 69.4169 101.201L69.4132 101.198L69.4095 101.194H69.4021L69.3965 101.185H69.3891L69.3854 101.179L69.3817 101.176L69.378 101.172L69.3743 101.176L69.3706 101.172L69.3595 101.166L69.3558 101.163L69.3521 101.159H69.3447L69.3336 101.153L69.3299 101.15L69.3262 101.146H69.3188L69.3077 101.14L69.3039 101.137L69.2928 101.131H69.2854L69.2743 101.126L69.2706 101.122L69.2669 101.118H69.2595H69.2521L69.2484 101.114H69.241H69.2336L69.2299 101.111H69.2225L69.2188 101.105L69.2095 101.101H69.2021L69.1984 101.105L69.1947 101.101L69.191 101.098H69.1836L69.1799 101.1L69.1762 101.096H69.1688L69.1651 101.09H69.1577H69.1502H69.1428H69.1354L69.1317 101.087L69.128 101.09L69.1243 101.087H69.1169H69.1095H69.1021H69.0947L69.091 101.083L69.0873 101.087L69.0836 101.083L69.0799 101.087L69.0762 101.083L69.0725 101.087L69.0688 101.083H69.0577L69.0502 101.085H69.0428H69.0354H69.028L69.0243 101.079C69.0169 101.079 69.0095 101.081 69.0058 101.081H68.9947H68.9873H68.9799H68.9725C68.9651 101.081 68.9558 101.083 68.9465 101.081C68.941 101.081 68.9354 101.081 68.928 101.083H68.9206H68.9095H68.9021L68.891 101.085H68.8836L68.8799 101.087H68.8725L68.8614 101.089L68.8576 101.092L68.8465 101.096H68.8354V101.098L68.8391 101.059V101.048L68.8428 101.027V101.016L68.8484 100.964V100.944L68.8502 100.939V100.927L68.8521 100.916V100.911L68.8539 100.89V100.874V100.859L68.8576 100.842V100.827L68.8595 100.822V100.811L68.8614 100.8V100.794L68.8632 100.777V100.763L68.8651 100.757V100.746L68.8669 100.735V100.72L68.8688 100.714V100.703L68.8706 100.692V100.676L68.8725 100.664V100.65L68.8743 100.639V100.633V100.622V100.611L68.8762 100.6V100.589V100.583V100.572V100.566L68.8706 100.561V100.55L68.8725 100.539V100.527L68.8743 100.516V100.505V100.5V100.479L68.8762 100.474V100.468V100.463V100.451V100.446V100.44V100.429V100.424V100.418V100.407V100.401V100.39V100.385V100.37L68.878 100.364V100.359V100.353V100.342V100.337V100.326L68.8799 100.314V100.303L68.8817 100.292V100.281V100.276V100.27V100.264V100.259L68.8836 100.242L68.8799 100.231V100.226V100.22V100.209V100.203V100.198V100.192L68.8743 100.187V100.181V100.176V100.17V100.164V100.159L68.8706 100.153V100.148V100.142V100.137V100.126H68.8651V100.114V100.103H68.8614V100.098C68.8614 100.098 68.8614 100.083 68.8576 100.076V100.07V100.064L68.8521 100.059V100.048L68.8484 100.042V100.037V100.026H68.8428V100.02L68.8391 100.009V100.003V99.9978L68.8336 99.9922L68.8299 99.9811V99.9756V99.97L68.8243 99.9645L68.8206 99.9533V99.9478L68.8169 99.9367L68.8114 99.9311L68.8076 99.92V99.9145V99.9089L68.8039 99.9033L68.7984 99.8978V99.8922L68.7947 99.8867L68.7891 99.8811V99.8756L68.7854 99.87V99.8645L68.7817 99.8552L68.7762 99.8478H68.7706V99.8422V99.8367L68.7669 99.8311H68.7614V99.8256L68.7558 99.82V99.8145L68.7521 99.8089L68.7465 99.8033L68.741 99.7978L68.7354 99.7922V99.7867H68.7299V99.7811L68.7262 99.7756L68.7206 99.77L68.7151 99.7645L68.7095 99.7589V99.7533H68.7039V99.7478H68.6984V99.7422H68.6928V99.7367L68.6836 99.7311L68.678 99.7256L68.6725 99.72L68.6669 99.7145L68.6614 99.7089V99.7034C68.6614 99.7034 68.6502 99.6941 68.6465 99.6904L68.6373 99.6848L68.6317 99.6793L68.6262 99.6737L68.6206 99.6682C68.6206 99.6682 68.6076 99.657 68.6002 99.6496C68.5965 99.6459 68.5928 99.6422 68.5854 99.6385L68.5799 99.633L68.5706 99.6274L68.5669 99.6219L68.5576 99.6163L68.5521 99.6108H68.5465L68.541 99.6052L68.5317 99.5996H68.5262L68.5058 99.5867L68.5354 99.5626L68.5428 99.5552L68.5595 99.5422L68.5669 99.5348L68.6077 99.5015L68.6243 99.4885L68.628 99.4848L68.6447 99.4719L68.6484 99.4682L68.6651 99.4552L68.6762 99.4459L68.6799 99.4422L68.6891 99.4348L68.7132 99.4145L68.7169 99.4108L68.7262 99.4034L68.7336 99.3959L68.7373 99.3922L68.7502 99.383L68.7632 99.3737L68.7669 99.37L68.7743 99.3626L68.7836 99.3552L68.7965 99.3459L68.8002 99.3422L68.8095 99.3348L68.8169 99.3274L68.8299 99.3182L68.8336 99.3145L68.8373 99.3108L68.8465 99.3033L68.8502 99.2996L68.8576 99.2922L68.8614 99.2885L68.8706 99.2811L68.8743 99.2774L68.878 99.2737L68.8854 99.2663L68.8947 99.2589L68.8984 99.2552L68.9077 99.2478L68.9114 99.2441V99.2367L68.9206 99.2293L68.928 99.2219L68.9373 99.2145L68.9447 99.2089L68.9539 99.2015L68.9576 99.1978L68.9651 99.1904L68.9743 99.183L68.978 99.1793L68.9817 99.1756L68.9854 99.1719L68.9928 99.1645L68.9965 99.1608L69.0002 99.1571L69.0095 99.1515L69.0132 99.1478L69.0169 99.1441L69.0243 99.1367L69.028 99.133L69.0317 99.1293L69.0354 99.1256L69.0391 99.1219L69.0521 99.1126L69.0595 99.1052L69.0632 99.1015L69.0706 99.0941L69.0743 99.0904L69.0817 99.083L69.0891 99.0756L69.0984 99.0682L69.1058 99.0608L69.1095 99.057L69.1132 99.0534L69.1225 99.0459L69.1262 99.0422L69.1299 99.0385L69.1336 99.0348L69.141 99.0274L69.1465 99.0163L69.1502 99.0126L69.1539 99.0089L69.1632 99.0015L69.1669 98.9978L69.1706 98.9941L69.1743 98.9904V98.983L69.1799 98.9793L69.1836 98.9756L69.1873 98.9719L69.191 98.9682L69.1947 98.9645V98.9571L69.2002 98.9533L69.2039 98.9496L69.2076 98.9459L69.2169 98.9385L69.2132 98.9348L69.2169 98.9311L69.2206 98.9274L69.2243 98.9237L69.228 98.92L69.2243 98.9163L69.228 98.9126C69.228 98.9126 69.2373 98.9015 69.241 98.8941L69.2447 98.8904L69.2484 98.8867V98.8793L69.2576 98.8719V98.8645L69.2632 98.8608L69.2669 98.8571L69.2706 98.8533L69.2669 98.8496L69.2706 98.8459L69.2762 98.8348L69.2799 98.8311L69.2836 98.8274V98.82L69.2891 98.8089L69.2928 98.8052L69.2965 98.8015V98.7941L69.3021 98.783L69.3058 98.7793L69.3114 98.7682V98.7608L69.3169 98.7496L69.3206 98.7459L69.3243 98.7422V98.7348V98.7274L69.328 98.7237V98.7163V98.7089L69.3317 98.7052V98.6978L69.3373 98.6941L69.341 98.6848V98.6756L69.3373 98.6719L69.341 98.6682L69.3447 98.6645V98.6571L69.341 98.6533L69.3447 98.6496V98.6422L69.3502 98.6385V98.6311V98.6237V98.6163V98.6089L69.3539 98.6052L69.3502 98.6015L69.3539 98.5978V98.5904V98.583V98.5756V98.5682L69.3576 98.5645L69.3539 98.5608L69.3576 98.5571L69.3539 98.5533L69.3576 98.5496L69.3539 98.5459L69.3576 98.5422L69.3539 98.5311V98.5237V98.5163V98.5089V98.5015L69.3576 98.4978C69.3576 98.4978 69.3558 98.483 69.3558 98.4793V98.4682L69.3539 98.4608V98.4534V98.4459C69.3521 98.4385 69.3521 98.4293 69.3539 98.42C69.3539 98.4145 69.3539 98.4089 69.3521 98.4015V98.3941L69.3502 98.383V98.3756V98.3645V98.3571L69.3465 98.3533V98.3459V98.3348L69.3428 98.3311V98.32L69.3373 98.3089L69.3762 98.3126H69.3873L69.4076 98.3163H69.4188L69.4706 98.3219H69.491L69.4965 98.3256H69.5076L69.5188 98.3274H69.5243L69.5447 98.3311H69.5595L69.5651 98.333H69.5762L69.5928 98.3367H69.6077L69.6132 98.3385H69.6243L69.6354 98.3404H69.641L69.6576 98.3422H69.6725L69.678 98.3441H69.6891L69.7002 98.3459H69.7169L69.7225 98.3478H69.7336L69.7447 98.3496H69.7614L69.7669 98.3515H69.7725H69.7836H69.7891H69.8002H69.8058H69.8169H69.8225H69.828H69.8391L69.8502 98.3533H69.8558H69.8669H69.8725L69.878 98.3496H69.8891L69.9002 98.3515H69.9114L69.9225 98.3533H69.9336H69.9391H69.9502L69.9614 98.3552H69.9669H69.9725H69.978H69.9891H70.0002L70.0114 98.3571H70.0169H70.0225H70.0336H70.0391H70.0447H70.0502H70.0558L70.0725 98.3589H70.078H70.0836H70.0891H70.1002H70.1058H70.1169H70.128L70.1391 98.3608H70.1502H70.1558H70.1614H70.1725H70.178H70.1891H70.2002L70.2114 98.3571H70.2169H70.2225H70.2336L70.2447 98.3589H70.2502L70.2558 98.3552H70.2614H70.2669H70.2725H70.278H70.2836L70.2891 98.3515H70.2947H70.3002H70.3169V98.3478H70.3225H70.328H70.3336H70.3391V98.3422H70.3447C70.3521 98.3422 70.3595 98.3422 70.3669 98.3385H70.3725H70.378L70.3836 98.333H70.3947L70.4002 98.3293H70.4114H70.4169V98.3237H70.4225L70.4336 98.32H70.4391H70.4447L70.4502 98.3145L70.4614 98.3108H70.4669H70.4725L70.478 98.307L70.4891 98.3034H70.4947L70.5058 98.2996L70.5114 98.2941L70.5225 98.2904H70.528H70.5336L70.5447 98.2811H70.5502L70.5558 98.2774L70.5614 98.2719H70.5669L70.5725 98.2682H70.578L70.5891 98.2645L70.5947 98.2589V98.2534H70.6002H70.6058L70.6114 98.2496V98.2441H70.6169L70.6225 98.2385H70.628L70.6336 98.2348L70.6391 98.2293L70.6447 98.2237L70.6502 98.2182H70.6558V98.2126H70.6614L70.6669 98.2089L70.6725 98.2033L70.678 98.1978L70.6836 98.1922H70.6891V98.1867H70.6947V98.1811H70.7002V98.1756H70.7058L70.7114 98.1663L70.7169 98.1608L70.7225 98.1552L70.728 98.1496L70.7336 98.1441H70.7391C70.7391 98.1441 70.7484 98.133 70.7502 98.1293L70.7558 98.12L70.7614 98.1145L70.7669 98.1089L70.7725 98.1052C70.7725 98.1052 70.7817 98.0922 70.791 98.0848C70.7947 98.0811 70.7984 98.0774 70.8039 98.07L70.8095 98.0645L70.8151 98.0552L70.8206 98.0496L70.8262 98.0404L70.8317 98.0348V98.0293L70.8373 98.0237L70.8428 98.0145V98.0089L70.8502 97.9996L70.8558 97.9904L70.8799 98.02L70.8873 98.0293L70.9002 98.0459L70.9076 98.0533L70.941 98.0941L70.9539 98.1108L70.9577 98.1145L70.9651 98.1219L70.9725 98.1293L70.9762 98.133L70.9891 98.1496L70.9984 98.1626L71.0021 98.1663L71.0095 98.1737L71.0188 98.1867L71.028 98.1997L71.0317 98.2033L71.0391 98.2108L71.0465 98.22L71.0502 98.2237L71.0595 98.2367L71.0688 98.2496L71.0725 98.2534L71.0799 98.2608L71.0873 98.2682L71.0965 98.2811L71.1002 98.2848L71.1077 98.2922L71.1151 98.3015L71.1243 98.3145L71.128 98.3182L71.1317 98.3219L71.1391 98.3293L71.1428 98.333L71.1484 98.3404L71.1521 98.3441L71.1576 98.3515L71.1614 98.3552L71.1651 98.3589L71.1725 98.3663L71.1799 98.3737L71.1836 98.3774L71.191 98.3848L71.1947 98.3885H71.2021L71.2095 98.3978L71.2169 98.4052L71.2243 98.4126L71.2373 98.4293L71.241 98.433L71.2539 98.4496L71.2577 98.4534L71.2614 98.457L71.2651 98.4608L71.2725 98.47L71.2762 98.4737L71.2799 98.4774L71.2873 98.4848L71.291 98.4885L71.2947 98.4922L71.3021 98.4996L71.3058 98.5033L71.3095 98.5071L71.3132 98.5108L71.3169 98.5145L71.3262 98.5274L71.3299 98.5311L71.3336 98.5348L71.3373 98.5385L71.3447 98.5478L71.3484 98.5515L71.3614 98.5682L71.3688 98.5756L71.3762 98.5848L71.3799 98.5885L71.3836 98.5922L71.3873 98.5959L71.391 98.5996L71.3984 98.6089L71.4021 98.6126L71.4095 98.6219L71.4206 98.6274L71.4243 98.6311L71.428 98.6348L71.4354 98.6422L71.4391 98.6459L71.4465 98.6552H71.4539L71.4576 98.6608L71.4614 98.6645L71.4651 98.6682L71.4688 98.6719L71.4725 98.6756H71.4799L71.4836 98.6811L71.4873 98.6848L71.491 98.6885L71.4984 98.6959L71.5021 98.6922L71.5058 98.6959L71.5095 98.6996L71.5132 98.7033L71.5169 98.7071L71.5206 98.7033L71.5243 98.7071C71.5243 98.7071 71.5354 98.7163 71.541 98.72L71.5447 98.7237L71.5484 98.7274H71.5558L71.5632 98.7367H71.5706L71.5743 98.7422L71.578 98.7459L71.5817 98.7496L71.5854 98.7459L71.5891 98.7496L71.6002 98.7552L71.6039 98.7589L71.6076 98.7626H71.6151L71.6262 98.7682L71.6299 98.7719L71.6336 98.7756H71.641L71.6521 98.7811L71.6558 98.7848L71.6669 98.7904H71.6743L71.6854 98.7959L71.6891 98.7996L71.6928 98.8033H71.7002H71.7076L71.7114 98.8071H71.7188H71.7262L71.7299 98.8108H71.7373L71.741 98.8163L71.7502 98.82H71.7576L71.7614 98.8163L71.7651 98.82L71.7688 98.8237H71.7762L71.7799 98.8219L71.7836 98.8256H71.791L71.7947 98.8311H71.8021H71.8095H71.8169H71.8243L71.828 98.8348L71.8317 98.8311L71.8354 98.8348H71.8428H71.8502H71.8576H71.8651L71.8688 98.8385L71.8725 98.8348L71.8762 98.8385L71.8799 98.8348L71.8836 98.8385L71.8873 98.8348L71.891 98.8385H71.9021H71.9095H71.9169H71.9243H71.9317L71.9354 98.8441C71.9428 98.8441 71.9502 98.8422 71.9539 98.8441L71.9651 98.8404H71.9725H71.9799H71.9873C71.9873 98.8404 72.0039 98.8404 72.0132 98.8404C72.0188 98.8404 72.0243 98.8404 72.0317 98.8385H72.0391H72.0502H72.0576L72.0688 98.8367H72.0762L72.0799 98.8348H72.0873L72.0984 98.833L72.1021 98.8293H72.1132L72.1243 98.8237L72.1206 98.8626V98.8737L72.1169 98.8941V98.9052L72.1114 98.9571V98.9774L72.1095 98.983V98.9941L72.1077 99.0052V99.0108L72.1058 99.0311V99.0459V99.0515V99.0626L72.1021 99.0941V99.0996V99.1108V99.1219V99.1274V99.1422L72.0984 99.1589V99.1645V99.1756V99.1867L72.0965 99.2034V99.2089V99.22V99.2311L72.0947 99.2459V99.2571L72.0928 99.2682V99.2737V99.2848V99.3015L72.0891 99.3126V99.3237L72.0873 99.3348V99.3404V99.3515V99.3571L72.091 99.3626V99.3737L72.0891 99.3848V99.3959L72.0873 99.4071V99.4182V99.4237V99.4348L72.0854 99.4459V99.4571V99.4626V99.4737V99.4793V99.4848V99.4959V99.5015V99.5071V99.5182V99.5237V99.5293V99.5348V99.5404L72.0836 99.557V99.5626V99.5682V99.5737V99.5848V99.5904V99.6015V99.6126L72.0817 99.6237V99.6348V99.6404V99.6459V99.6571V99.6626V99.6682V99.6737V99.6848L72.0854 99.6959V99.7015V99.707V99.7182V99.7237V99.7348L72.0891 99.7404V99.7459V99.7571V99.7626V99.7682L72.0947 99.7737V99.7793V99.7848V99.7904V99.8015H72.1002V99.8126V99.8237H72.1039V99.8293C72.1039 99.8293 72.1039 99.8441 72.1077 99.8515V99.857V99.8626L72.1132 99.8682V99.8793L72.1169 99.8848V99.8904V99.8959V99.9015H72.1225V99.9071L72.1262 99.9182V99.9237V99.9293L72.1317 99.9348L72.1354 99.9459V99.9515V99.9571L72.141 99.9626L72.1447 99.9737V99.9793L72.1484 99.9904L72.1539 99.9959L72.1576 100.007V100.013V100.018L72.1632 100.024L72.1688 100.029V100.035L72.1725 100.04L72.178 100.046V100.052L72.1817 100.057V100.063L72.1854 100.072L72.191 100.079H72.1965V100.085V100.09L72.2002 100.096H72.2058V100.101L72.2114 100.107V100.113L72.2151 100.118L72.2206 100.124L72.2262 100.129L72.2317 100.135V100.14H72.2373V100.146L72.241 100.151L72.2465 100.157L72.2521 100.163L72.2576 100.168V100.174H72.2632V100.179H72.2688V100.185H72.2743V100.19L72.2836 100.196L72.2891 100.202L72.2947 100.207L72.3002 100.213L72.3058 100.218V100.224C72.3058 100.224 72.3169 100.231 72.3206 100.235L72.3299 100.24L72.3354 100.246L72.341 100.251L72.3465 100.257C72.3465 100.257 72.3595 100.266 72.3669 100.276C72.3706 100.279 72.3743 100.283 72.3817 100.287L72.3873 100.292L72.3965 100.298L72.4021 100.303L72.4114 100.309L72.4169 100.314H72.4225L72.428 100.32L72.4373 100.326H72.4428L72.4521 100.333L72.4614 100.339L72.4317 100.363L72.4243 100.368L72.4076 100.381L72.4002 100.389L72.3595 100.422L72.3428 100.435L72.3391 100.439L72.3225 100.451L72.3188 100.455L72.3021 100.468L72.291 100.477L72.2873 100.481L72.278 100.489L72.2539 100.509L72.2502 100.513L72.241 100.52L72.2336 100.527L72.2299 100.531L72.2169 100.54L72.2058 100.55L72.2021 100.553L72.1947 100.561L72.1854 100.568L72.1725 100.577L72.1688 100.581L72.1595 100.589L72.1521 100.596L72.1391 100.605L72.1354 100.609L72.1317 100.613L72.1225 100.62L72.1188 100.624L72.1095 100.631L72.1058 100.635L72.0965 100.642L72.0928 100.646L72.0891 100.65L72.0725 100.663L72.0688 100.666L72.0595 100.674L72.0558 100.677V100.685L72.0465 100.692L72.0391 100.7L72.0299 100.707L72.0225 100.714L72.0151 100.722L72.0114 100.726L72.0039 100.733L71.9947 100.74L71.991 100.744L71.9873 100.748L71.9836 100.751L71.9762 100.759L71.9725 100.763L71.9688 100.766L71.9595 100.774L71.9558 100.777L71.9521 100.781L71.9447 100.789L71.941 100.792L71.9373 100.796L71.9336 100.8L71.9299 100.803L71.9169 100.813L71.9132 100.816L71.9095 100.82L71.9058 100.824L71.8984 100.831L71.8947 100.835L71.8873 100.842L71.8799 100.85L71.8632 100.863L71.8595 100.866L71.8558 100.87L71.8521 100.874L71.8484 100.877L71.8447 100.881L71.841 100.885L71.8373 100.889L71.8299 100.896L71.8243 100.907L71.8206 100.911L71.8169 100.914L71.8077 100.922L71.8039 100.926L71.8002 100.929L71.7965 100.933V100.94L71.791 100.944L71.7873 100.948L71.7836 100.951L71.7743 100.959V100.966L71.7688 100.97L71.7651 100.974L71.7614 100.977L71.7539 100.985L71.7576 100.989L71.7539 100.992L71.7502 100.996L71.7465 101L71.7428 101.003L71.7465 101.007L71.7428 101.011C71.7428 101.011 71.7336 101.022 71.7299 101.027L71.7262 101.031L71.7225 101.035V101.042L71.7132 101.05V101.057L71.7039 101.064L71.7002 101.068L71.7039 101.072L71.7002 101.076L71.6947 101.087L71.691 101.09L71.6873 101.094V101.101L71.6817 101.113L71.678 101.116L71.6743 101.12V101.127L71.6688 101.139L71.6651 101.142L71.6595 101.153V101.161L71.6539 101.172L71.6502 101.176L71.6465 101.179V101.187V101.194L71.6428 101.198V101.205V101.213L71.6391 101.216V101.224L71.6336 101.227L71.6299 101.237V101.246L71.6336 101.25L71.6299 101.253L71.6262 101.257V101.264L71.6299 101.268L71.6262 101.272V101.279L71.6206 101.283V101.29V101.298V101.305V101.313L71.6169 101.316L71.6206 101.32L71.6169 101.324V101.331V101.339V101.346V101.353L71.6132 101.357L71.6169 101.361L71.6132 101.364L71.6169 101.368L71.6132 101.372L71.6169 101.376L71.6132 101.379L71.6169 101.39V101.398V101.405V101.413V101.42L71.6132 101.424C71.6132 101.424 71.6151 101.439 71.6151 101.442V101.453L71.6169 101.461V101.468V101.476C71.6188 101.483 71.6188 101.492 71.6169 101.501C71.6169 101.507 71.6169 101.513 71.6169 101.52V101.527L71.6188 101.539V101.546L71.6206 101.557V101.564L71.6225 101.568V101.576L71.6243 101.587L71.628 101.59L71.6317 101.602V101.613L71.5965 101.609H71.5854L71.5651 101.605H71.5539L71.5021 101.6H71.4817L71.4762 101.596H71.4651L71.4539 101.594H71.4484L71.428 101.592H71.4132L71.4077 101.59H71.3965L71.3817 101.589H71.3651L71.3595 101.587H71.3484L71.3373 101.585H71.3317L71.3151 101.583H71.3002L71.2947 101.581H71.2836L71.2725 101.579H71.2558L71.2502 101.577H71.2391L71.228 101.576H71.2114L71.2058 101.574H71.2002H71.1891H71.1836H71.1725H71.1669H71.1558H71.1502H71.1447H71.1336L71.1225 101.572H71.1169H71.1058H71.1002L71.0947 101.576H71.0836L71.0632 101.572H71.0521L71.041 101.57H71.0354H71.0243H71.0132L71.0021 101.568H70.9965H70.9854H70.9743L70.9632 101.566H70.9577H70.9521H70.941H70.9354H70.9243H70.9188H70.9021L70.8965 101.564H70.891H70.8854H70.8743H70.8688H70.8577L70.8465 101.563H70.8354L70.8243 101.561H70.8132H70.8076H70.8021H70.791H70.7854H70.7743L70.7632 101.564H70.7576H70.7521H70.741H70.7354H70.7299H70.7243L70.7188 101.57H70.7132H70.7077H70.7021H70.6965H70.691L70.6854 101.574H70.6799H70.6743H70.6688H70.6576V101.579H70.6521H70.6354V101.583H70.6299C70.6299 101.583 70.6151 101.583 70.6076 101.585H70.6021H70.5965L70.591 101.59H70.5799L70.5743 101.594H70.5632H70.5577V101.6H70.5521L70.541 101.603H70.5354H70.5299L70.5243 101.609L70.5132 101.613H70.5076H70.5021L70.4965 101.618L70.4854 101.622H70.4799L70.4688 101.626L70.4632 101.631L70.4521 101.635H70.4465H70.441L70.4299 101.644H70.4243L70.4188 101.648L70.4132 101.653H70.4077L70.4021 101.657H70.3965L70.3854 101.661L70.3799 101.666V101.672H70.3743H70.3688L70.3632 101.676V101.681H70.3576L70.3521 101.685H70.3465L70.341 101.689L70.3354 101.694L70.3299 101.7L70.3243 101.703H70.3188V101.709H70.3132L70.3077 101.713L70.3021 101.718L70.2965 101.722L70.291 101.727L70.2706 101.735ZM72.8299 104.714C72.7928 104.792 72.7447 104.861 72.6873 104.92C72.6762 104.929 72.6651 104.939 72.6577 104.944C72.4854 105.085 72.2928 105.126 72.078 105.068C71.8558 105.009 71.6262 104.848 71.3891 104.581C71.3595 104.546 71.3262 104.505 71.291 104.461L70.4317 103.413L70.2799 103.227L70.3095 102.924C70.4595 102.883 70.6447 102.874 70.8632 102.896L71.8651 102.996C71.8651 102.996 71.8762 102.996 71.8799 102.996L72.3502 103.042L72.791 103.581C72.9984 103.998 73.0114 104.376 72.8262 104.713L72.8299 104.714ZM75.5039 101.739C75.5317 101.82 75.5484 101.901 75.5502 101.985C75.5502 102 75.5465 102.013 75.5465 102.024C75.5243 102.244 75.4169 102.411 75.2243 102.52C75.0262 102.635 74.7484 102.683 74.3928 102.663C74.3465 102.657 74.2947 102.653 74.2391 102.648L72.891 102.513L72.6521 102.489L72.4576 102.251C72.5354 102.116 72.6595 101.979 72.8299 101.84L73.6095 101.203C73.6095 101.203 73.6169 101.196 73.6206 101.194L73.9854 100.896L74.6799 100.964C75.1225 101.113 75.3965 101.37 75.5058 101.74L75.5039 101.739ZM75.6428 98.4941C75.5836 98.7163 75.4206 98.9459 75.1558 99.183C75.1206 99.2126 75.0799 99.2459 75.0354 99.2811L73.9873 100.14L73.8021 100.292L73.4965 100.263C73.4558 100.113 73.4465 99.9274 73.4688 99.7089L73.5688 98.7071C73.5688 98.7071 73.5688 98.6959 73.5688 98.6922L73.6151 98.2237L74.1539 97.783C74.5706 97.5756 74.9484 97.5626 75.2854 97.7478C75.3632 97.7848 75.4317 97.8311 75.491 97.8885C75.5002 97.8996 75.5095 97.9108 75.5151 97.9182C75.6558 98.0904 75.6965 98.283 75.6391 98.4978L75.6428 98.4941Z" fill="#55142A"/>
<path d="M98.1536 107.676V107.717C98.1406 108.491 97.835 109.106 97.2424 109.562C96.6887 109.989 96.0332 110.204 95.2739 110.204H95.211C95.1832 110.204 95.148 110.197 95.1073 110.184C94.7202 110.169 94.3536 110.093 94.0091 109.956H93.9684L93.948 109.936C93.9202 109.923 93.8999 109.915 93.885 109.915L93.8647 109.895H93.8443C93.8313 109.882 93.8091 109.867 93.7813 109.854H93.761L93.7406 109.834L93.6999 109.813L93.6591 109.793H93.6387L93.598 109.773L93.5776 109.752H93.5573L93.5369 109.732L93.4962 109.712L93.4758 109.691L93.435 109.671L93.4147 109.651C93.3869 109.636 93.3665 109.623 93.3517 109.61C93.3239 109.582 93.2962 109.562 93.2684 109.547L93.248 109.526L93.2276 109.506L93.2073 109.486L93.1665 109.465C93.1536 109.451 93.1313 109.438 93.1036 109.425V109.404L93.0832 109.384L93.0628 109.363L93.0424 109.343L93.0221 109.323L92.9813 109.302V109.282H92.961V109.262H92.9406V109.241H92.9202V109.221L92.8999 109.201L92.8795 109.18L92.8591 109.16L92.8387 109.139V109.119H92.8184V109.099L92.798 109.078L92.7776 109.058L92.7573 109.038L92.7369 109.017V108.997L92.7165 108.976V108.956H92.6962L92.6758 108.936V108.895H92.6554L92.635 108.875L92.6147 108.834V108.813L92.5943 108.793V108.773L92.5739 108.752L92.5536 108.732V108.712L92.5332 108.691L92.5128 108.671V108.63L92.4924 108.589L92.4721 108.569L92.4517 108.528V108.508L92.4313 108.467L92.411 108.447V108.406L92.3906 108.365L92.3702 108.345V108.304L92.3499 108.263V108.243H92.3295V108.18L92.3091 108.16V108.119L92.2887 108.099V108.058C92.2758 108.03 92.2684 108.002 92.2684 107.975V107.954H92.248V107.871H92.2276V107.767L92.2073 107.747V107.643L92.1869 107.623V107.478L92.1665 107.438V106.236L92.1462 106.215V98.0894C92.1054 97.1357 91.9036 96.4098 91.5443 95.9135C91.198 95.4302 90.7295 95.1876 90.135 95.1876H90.0313C89.811 95.2153 89.5962 95.2783 89.3887 95.3746C88.435 95.7616 87.8202 96.5635 87.5443 97.7783V104.515H87.9387C88.0499 104.515 88.1054 104.571 88.1054 104.682C88.1054 104.793 88.0499 104.849 87.9387 104.849H85.6165C85.5054 104.849 85.4499 104.793 85.4499 104.682C85.4499 104.571 85.5054 104.515 85.6165 104.515H85.9887V97.4894C85.9887 97.0339 85.9536 96.7228 85.885 96.5561C85.8165 96.3894 85.6573 96.2653 85.4091 96.1839C85.3128 96.1431 85.285 96.0672 85.3258 95.9561C85.3387 95.9153 85.3665 95.8876 85.4091 95.8728C85.8924 95.6246 86.2443 95.4376 86.4665 95.3135C86.785 95.1209 87.0462 94.9061 87.2536 94.6709C87.3369 94.5876 87.4202 94.5876 87.5017 94.6709C87.5295 94.6987 87.5425 94.7394 87.5425 94.795V96.7431C87.9295 95.9283 88.4962 95.3691 89.2425 95.0635C89.7258 94.8561 90.2276 94.7839 90.7462 94.845C91.2647 94.9079 91.7443 95.0968 92.1869 95.4153L92.2276 95.4357V95.4561L92.2684 95.4765L92.2887 95.4968L92.3091 95.5172H92.3295L92.3499 95.5376L92.3702 95.5579L92.411 95.5783L92.4313 95.5987L92.4517 95.6191L92.4721 95.6394L92.4924 95.6598L92.5128 95.6802L92.5332 95.7005L92.5536 95.7209L92.5739 95.7413L92.5943 95.7616L92.6147 95.782L92.635 95.8024H92.6554V95.8228L92.6758 95.8431L92.6962 95.8635L92.7165 95.8839L92.7369 95.9042L92.7573 95.9246L92.7776 95.945C92.7906 95.9579 92.8054 95.9802 92.8184 96.0079H92.8387L92.8591 96.0487L92.8795 96.0691L92.8999 96.1098C93.2999 96.6357 93.5499 97.2709 93.6462 98.0172L93.6665 98.0376V98.2042L93.6869 98.245V107.406C93.6869 108.193 93.8184 108.802 94.0813 109.23C94.3295 109.63 94.6758 109.845 95.1184 109.873H95.2424C95.3665 109.873 95.4906 109.86 95.6147 109.832C96.0295 109.749 96.3406 109.569 96.548 109.293C96.7406 109.017 96.8239 108.658 96.7962 108.215C96.7813 108.076 96.761 107.925 96.7332 107.76V107.719C96.7202 107.347 96.8369 107.076 97.085 106.91C97.1813 106.841 97.285 106.802 97.3962 106.795C97.5073 106.788 97.611 106.812 97.7073 106.867C97.9702 107.004 98.1221 107.282 98.1628 107.697L98.1536 107.676Z" fill="#FFF9EE"/>
<path d="M97.5945 104.483C97.7056 104.483 97.7612 104.539 97.7612 104.65C97.7612 104.761 97.7056 104.817 97.5945 104.817H95.2723C95.1612 104.817 95.1056 104.761 95.1056 104.65C95.1056 104.539 95.1612 104.483 95.2723 104.483H95.6445V97.4573C95.6445 97.0017 95.6093 96.6906 95.5408 96.524C95.4723 96.3573 95.313 96.2332 95.0649 96.1517C94.9686 96.111 94.9408 96.0351 94.9815 95.924C94.9945 95.8832 95.0223 95.8554 95.0649 95.8406C95.5482 95.5925 95.9001 95.4054 96.1223 95.2814C96.4408 95.0888 96.7019 94.874 96.9093 94.6388C96.9927 94.5554 97.076 94.5554 97.1575 94.6388C97.1853 94.6666 97.1982 94.7073 97.1982 94.7629V104.485H97.5927L97.5945 104.483ZM96.3501 92.8758C96.0464 92.8758 95.7908 92.7517 95.5834 92.5036C95.389 92.2554 95.2927 91.9647 95.2927 91.6332C95.2927 91.3017 95.389 91.011 95.5834 90.7628C95.7908 90.5147 96.0464 90.3906 96.3501 90.3906C96.6538 90.3906 96.9093 90.5147 97.1167 90.7628C97.3241 91.011 97.4278 91.3017 97.4278 91.6332C97.4278 91.9647 97.3241 92.2554 97.1167 92.5036C96.9093 92.7517 96.6538 92.8758 96.3501 92.8758Z" fill="#FFF9EE"/>
<path d="M107.544 104.484C107.655 104.484 107.711 104.539 107.711 104.65C107.711 104.761 107.655 104.817 107.544 104.817H105.202C105.09 104.817 105.035 104.761 105.035 104.65C105.035 104.539 105.09 104.484 105.202 104.484H105.45L102.361 99.0947L100.889 100.484V104.484H101.283C101.394 104.484 101.45 104.539 101.45 104.65C101.45 104.761 101.394 104.817 101.283 104.817H98.9608C98.8497 104.817 98.7941 104.761 98.7941 104.65C98.7941 104.539 98.8497 104.484 98.9608 104.484H99.333V93.2484C99.333 92.8058 99.2978 92.5021 99.2293 92.3354C99.1608 92.1688 99.0015 92.0391 98.7534 91.941C98.6571 91.9003 98.6293 91.8299 98.67 91.7336C98.683 91.6928 98.7108 91.6577 98.7534 91.6299C99.2367 91.3947 99.5885 91.2151 99.8108 91.091C100.129 90.8836 100.39 90.6688 100.598 90.4484C100.681 90.3651 100.764 90.3595 100.846 90.428C100.874 90.4688 100.887 90.5114 100.887 90.5521V100.024L102.276 98.6984V98.678L102.4 98.5743L103.187 97.828V97.8077L106.192 94.9262H105.881C105.757 94.9262 105.694 94.8706 105.694 94.7595C105.694 94.6484 105.757 94.5928 105.881 94.5928H106.959C107.07 94.5928 107.126 94.6484 107.126 94.7595C107.126 94.8706 107.07 94.9262 106.959 94.9262H106.668L103.518 97.9725L107.229 104.482H107.54L107.544 104.484Z" fill="#FFF9EE"/>
<path d="M130.687 104.484C130.798 104.484 130.853 104.539 130.853 104.65C130.853 104.761 130.798 104.817 130.687 104.817H128.365C128.253 104.817 128.198 104.761 128.198 104.65C128.198 104.539 128.253 104.484 128.365 104.484H128.737V93.2484C128.737 92.8058 128.702 92.5021 128.633 92.3354C128.565 92.1688 128.405 92.0391 128.157 91.941C128.061 91.9003 128.033 91.8299 128.074 91.7336C128.087 91.6928 128.115 91.6577 128.157 91.6299C128.641 91.3947 128.992 91.2151 129.215 91.091C129.533 90.8836 129.794 90.6688 130.002 90.4484C130.085 90.3651 130.168 90.3595 130.25 90.428C130.278 90.4688 130.291 90.5114 130.291 90.5521V104.482H130.685L130.687 104.484Z" fill="#FFF9EE"/>
<path d="M140.429 94.5967C140.541 94.5967 140.596 94.6522 140.596 94.7633C140.596 94.8745 140.541 94.93 140.429 94.93H140.078L136.905 103.036V103.056L136.511 104.093L136.263 104.695L135.744 106.063C135.329 107.128 134.722 107.824 133.92 108.158C133.518 108.31 133.118 108.35 132.718 108.282C132.498 108.254 132.283 108.186 132.076 108.074C131.924 108.006 131.785 107.915 131.661 107.804C131.246 107.458 130.991 107.01 130.894 106.456V106.436H130.874V106.269L130.854 106.249V106.021C130.854 105.98 130.861 105.945 130.874 105.917C130.915 105.654 131.005 105.447 131.144 105.295C131.296 105.128 131.483 105.052 131.704 105.067H131.744C131.813 105.08 131.876 105.108 131.931 105.15C132.028 105.206 132.104 105.282 132.159 105.378C132.2 105.489 132.215 105.613 132.2 105.75V105.771C132.172 105.895 132.124 106.026 132.055 106.165C131.848 106.497 131.752 106.795 131.765 107.056C131.778 107.347 131.937 107.587 132.241 107.782C132.407 107.865 132.579 107.921 132.759 107.949C133.104 108.004 133.45 107.969 133.796 107.845C134.502 107.554 135.041 106.919 135.413 105.937L135.931 104.632L131.868 94.9319H131.578C131.466 94.9319 131.411 94.8763 131.411 94.7652C131.411 94.6541 131.466 94.5985 131.578 94.5985H133.733C133.844 94.5985 133.9 94.6541 133.9 94.7652C133.9 94.8763 133.844 94.9319 133.733 94.9319H133.566L136.739 102.539L139.704 94.9319H139.352C139.241 94.9319 139.185 94.8763 139.185 94.7652C139.185 94.6541 139.241 94.5985 139.352 94.5985H140.429V94.5967Z" fill="#FFF9EE"/>
<path d="M116.009 104.765H114.848C114.727 104.765 114.668 104.712 114.668 104.606V103.365C114.44 103.739 114.14 104.039 113.768 104.265C113.114 104.678 112.352 104.858 111.477 104.806C110.603 104.752 109.879 104.48 109.307 103.986L109.266 103.945L109.246 103.925L109.205 103.884C109.192 103.871 109.177 103.858 109.164 103.843L109.124 103.802L109.103 103.762L109.063 103.741C109.063 103.728 109.05 103.715 109.022 103.7C108.622 103.208 108.422 102.647 108.422 102.019V101.839L108.442 101.819V101.66L108.463 101.639V101.56L108.483 101.519V101.499L108.503 101.458V101.399L108.524 101.378V101.337L108.544 101.297V101.276L108.564 101.236V101.215L108.585 101.175V101.154L108.605 101.134V101.093L108.626 101.073V101.052L108.646 101.032V101.012L108.666 100.971L108.687 100.95C108.979 100.337 109.44 99.8838 110.068 99.5893C110.694 99.2967 111.402 99.143 112.189 99.1282H114.67V98.5486C114.642 97.4541 114.437 96.6282 114.05 96.0671C113.65 95.493 113.055 95.206 112.268 95.206H112.189C112.014 95.219 111.848 95.2393 111.689 95.2652C111.235 95.3578 110.909 95.5523 110.709 95.8449C110.509 96.1393 110.435 96.506 110.489 96.9449C110.581 97.2652 110.563 97.5319 110.429 97.7449C110.337 97.8653 110.222 97.9449 110.089 97.9856C110.035 97.9986 109.981 98.006 109.929 98.006C109.889 98.006 109.85 97.9986 109.809 97.9856C109.635 97.9597 109.496 97.8652 109.389 97.706C109.281 97.5467 109.229 97.3467 109.229 97.106C109.229 96.5319 109.537 96.019 110.15 95.5652C110.563 95.2578 111.05 95.0523 111.611 94.9449H111.631C111.805 94.9041 111.985 94.8856 112.172 94.8856H112.192C112.313 94.8727 112.433 94.8727 112.552 94.8856H112.652C113.759 94.9523 114.633 95.319 115.272 95.9856C115.885 96.6393 116.192 97.5134 116.192 98.606V99.1467C116.846 99.1208 117.4 99.0338 117.853 98.8875C118.107 98.8078 118.34 98.7078 118.553 98.5875V93.5652C118.553 93.1245 118.516 92.8245 118.444 92.6653C118.37 92.506 118.22 92.3782 117.994 92.2856C117.887 92.2597 117.853 92.193 117.894 92.0856C117.907 92.0449 117.935 92.0115 117.974 91.9856C118.453 91.7597 118.794 91.5856 118.994 91.4653C119.302 91.2782 119.561 91.0727 119.774 90.8449C119.84 90.7652 119.914 90.7652 119.994 90.8449C120.035 90.8727 120.053 90.9115 120.053 90.9652V96.6486C120.44 95.8616 121.04 95.3208 121.853 95.0282C122.374 94.8282 122.914 94.769 123.474 94.8486C124.061 94.9152 124.607 95.1189 125.114 95.4597C125.622 95.8004 126.007 96.2227 126.276 96.7301C126.555 97.2634 126.696 98.0449 126.696 99.0708V104.393H127.055C127.163 104.393 127.214 104.447 127.214 104.552C127.214 104.658 127.161 104.712 127.055 104.712H124.814C124.707 104.712 124.655 104.658 124.655 104.552C124.655 104.447 124.709 104.393 124.814 104.393H125.174V98.3708C125.133 97.343 124.894 96.5504 124.453 95.9893C124.133 95.5893 123.75 95.3356 123.303 95.2282C122.857 95.1208 122.405 95.1541 121.953 95.3282C121.046 95.6615 120.439 96.3356 120.133 97.3486L120.092 97.3689C120.092 97.3967 120.085 97.4227 120.072 97.4486C119.564 98.3282 118.857 98.9152 117.952 99.2097C117.472 99.356 116.885 99.443 116.19 99.469V104.432H116.55C116.657 104.432 116.709 104.486 116.709 104.591C116.709 104.697 116.655 104.75 116.55 104.75H116.009V104.765ZM112.187 99.4634C111.653 99.4634 111.2 99.6041 110.826 99.8838C110.452 100.163 110.179 100.525 110.005 100.963C109.846 101.376 109.785 101.804 109.826 102.245C109.866 102.699 110.013 103.093 110.266 103.425C110.853 104.237 111.807 104.512 113.127 104.245C113.287 104.178 113.44 104.099 113.589 104.004C114.096 103.684 114.455 103.23 114.668 102.643V99.4616H112.187V99.4634ZM118.55 104.406V99.2838C119.15 99.0041 119.65 98.5764 120.05 98.0041V104.406H120.409C120.529 104.406 120.589 104.46 120.589 104.565C120.589 104.671 120.529 104.725 120.409 104.725H118.168C118.061 104.725 118.009 104.671 118.009 104.565C118.009 104.46 118.063 104.406 118.168 104.406H118.548H118.55Z" fill="#FFF9EE"/>
</svg>
