<svg width="120" height="34" viewBox="0 0 120 34" fill="none" xmlns="http://www.w3.org/2000/svg">
<path d="M33.0171 16.5086L16.5085 0L-1.25144e-05 16.5086L16.5085 33.0171L33.0171 16.5086Z" fill="#55142A"/>
<path d="M24.4403 14.5144V14.498L24.443 14.4816L24.4348 14.4734V14.457L24.4375 14.4405L24.4321 14.4159L24.4403 14.4077L24.4348 14.383C24.4156 14.082 24.3281 13.811 24.1748 13.5674C24.0188 13.3238 23.8135 13.135 23.5562 13.0009C23.1648 12.7874 22.7269 12.7408 22.2452 12.8613L23.0772 12.1798C23.1019 12.1606 23.1128 12.1414 23.1156 12.1195C23.121 12.0539 23.0937 12.021 23.028 12.0128C22.8556 12.0073 22.6722 11.969 22.4778 11.9006C22.3465 11.8486 22.1439 11.7637 21.8675 11.6433C21.8483 11.6296 21.8264 11.6296 21.8018 11.6378C21.7389 11.6597 21.717 11.6981 21.7334 11.7528C21.7854 11.8869 21.7881 11.9991 21.7416 12.0867C21.7087 12.1497 21.6376 12.2318 21.5281 12.3303C21.4898 12.125 21.3995 11.9334 21.2544 11.7473L21.2407 11.7309C21.2407 11.7309 21.227 11.7172 21.2188 11.709L21.2626 11.2766V11.241L21.2681 11.23V11.1945L21.2736 11.1835V11.1616L21.2763 11.1507V11.1287L21.279 11.1178V11.0822L21.2845 11.0713V11.0494L21.2872 11.0384L21.279 11.0138V11.0029V10.9919V10.9563L21.2845 10.9344V10.9235L21.2763 10.9098C21.2626 10.4938 21.1613 10.1325 20.9698 9.82047L20.9615 9.79583L20.9506 9.78215L20.9424 9.75753H20.9314C20.926 9.7411 20.9178 9.72741 20.9123 9.7192L20.9013 9.70552L20.8904 9.69182L20.8794 9.67814L20.8685 9.66446L20.8575 9.65078L20.8466 9.6371V9.62614H20.8356L20.8247 9.61246L20.8137 9.59877L20.8028 9.58509L20.7919 9.57139L20.7809 9.55771L20.77 9.54403L20.7481 9.51939L20.7371 9.50571L20.7262 9.49203L20.7152 9.47835L20.6933 9.46466L20.6824 9.45097L20.6714 9.43728H20.6605L20.6495 9.4236L20.6386 9.40992L20.6167 9.39624V9.38528L20.5975 9.3716C20.3731 9.1718 20.1186 9.04316 19.8366 8.98021C19.5547 8.91726 19.2756 8.93095 18.9991 9.01853C18.5721 9.14443 18.23 9.42086 17.9727 9.84783L18.0795 8.77767C18.0822 8.74757 18.0795 8.72293 18.0631 8.70651C18.022 8.65724 17.9755 8.65177 17.9262 8.69283C17.8003 8.81052 17.6443 8.91453 17.4582 9.00211C17.3295 9.05685 17.127 9.14169 16.8478 9.25117C16.8232 9.25664 16.8068 9.27034 16.7986 9.29223C16.7685 9.34971 16.7794 9.39349 16.8314 9.42086C16.9628 9.48108 17.0449 9.55772 17.0723 9.65352C17.0942 9.72194 17.0996 9.82868 17.0942 9.97648C16.9245 9.85879 16.7219 9.7849 16.4893 9.75753H16.4674C16.4674 9.75753 16.4482 9.75753 16.4373 9.75753L16.1608 9.42086L16.1389 9.3935L16.1307 9.38528L16.1088 9.35792L16.1006 9.3497L16.0869 9.33328L16.0787 9.32507L16.0651 9.30865L16.0568 9.30043L16.0349 9.27307L16.0267 9.26485L16.013 9.24843L16.0048 9.24023L15.9802 9.22927L15.972 9.22107L15.9638 9.21285L15.9419 9.18548L15.9282 9.16906L15.92 9.16084H15.9036C15.6025 8.87346 15.2713 8.69009 14.9182 8.60524L14.8936 8.59429H14.8772L14.8553 8.58334L14.8471 8.59155C14.8307 8.58334 14.817 8.58061 14.8088 8.57787H14.7923L14.7759 8.57513H14.7595L14.7431 8.5724H14.7267L14.7102 8.56966L14.702 8.56145L14.6938 8.56966H14.6774L14.661 8.56692H14.6445L14.6117 8.56145H14.5953L14.5789 8.55871H14.5624L14.546 8.55598H14.5296L14.5132 8.55324L14.4885 8.55871H14.4721L14.4557 8.55598L14.4475 8.56419H14.4311L14.4146 8.56145L14.39 8.56692L14.3818 8.55871L14.3572 8.56419C14.0561 8.58335 13.7851 8.67093 13.5415 8.8242C13.2979 8.98021 13.1091 9.18549 12.975 9.44276C12.7615 9.83415 12.715 10.2721 12.8354 10.7565L12.1539 9.92448C12.1347 9.89985 12.1156 9.88889 12.0937 9.88616C12.028 9.88068 11.9951 9.90805 11.9869 9.97374C11.9814 10.1462 11.9431 10.3296 11.8747 10.5239C11.8227 10.6553 11.7378 10.8578 11.6202 11.1342C11.6065 11.1561 11.6037 11.1753 11.6147 11.1999C11.6366 11.2629 11.6749 11.2848 11.7296 11.2683C11.8638 11.2163 11.976 11.2136 12.0635 11.2601C12.1265 11.293 12.2059 11.3641 12.3071 11.4736C12.1046 11.5119 11.9103 11.6023 11.7242 11.7473L11.7077 11.761C11.7077 11.761 11.6941 11.7747 11.6858 11.7829L11.2534 11.7391H11.2178L11.2069 11.7336H11.1713L11.1603 11.7282H11.1384L11.1275 11.7254H11.1056L11.0947 11.7227H11.0618L11.0509 11.7172H11.029L11.018 11.7145L10.9934 11.7227H10.9824H10.9715H10.9359L10.914 11.7172H10.9031L10.8894 11.7254C10.4734 11.7364 10.1121 11.8404 9.80005 12.032L9.77542 12.0402L9.76173 12.0511L9.73709 12.0593V12.0703C9.72067 12.0758 9.70699 12.084 9.69878 12.0894L9.6851 12.1004L9.67141 12.1113L9.65773 12.1223L9.64404 12.1332L9.63036 12.1442L9.61667 12.1551H9.60572V12.1661L9.59203 12.177L9.57835 12.188L9.56467 12.1989L9.55098 12.2099L9.5373 12.2208L9.52361 12.2318L9.50993 12.2427L9.49624 12.2537L9.48255 12.2646L9.46887 12.2756L9.45518 12.2865L9.4415 12.3084L9.42782 12.3194L9.41413 12.3303V12.3413L9.3895 12.3631L9.37582 12.385H9.36487L9.35118 12.4069C9.15138 12.6314 9.02274 12.8859 8.95979 13.1678C8.89684 13.4497 8.91052 13.7289 8.99811 14.0053C9.12401 14.4323 9.40045 14.7744 9.82742 15.0317L8.75725 14.925C8.72714 14.9222 8.70251 14.925 8.68609 14.9414C8.63682 14.9825 8.63135 15.029 8.6724 15.0783C8.7901 15.2042 8.8941 15.3602 8.98169 15.5463C9.03916 15.6749 9.12128 15.8775 9.23076 16.1594C9.23623 16.184 9.24991 16.2004 9.27181 16.2086C9.32929 16.2387 9.37308 16.225 9.40045 16.1758C9.46066 16.0444 9.5373 15.9623 9.63036 15.9349C9.69878 15.913 9.80552 15.9076 9.95332 15.913C9.83563 16.0827 9.76173 16.2853 9.73436 16.5179V16.5398C9.73436 16.5398 9.73436 16.559 9.73436 16.5699L9.39771 16.8464L9.37034 16.8683L9.36213 16.8765L9.33476 16.8984L9.32654 16.9066L9.31012 16.9203L9.30191 16.9285L9.28549 16.9422L9.27728 16.9504L9.24991 16.9723L9.2417 16.9805L9.22528 16.9942L9.21707 17.0024L9.20612 17.0243L9.19791 17.0325L9.18969 17.0407L9.16233 17.0626L9.14591 17.0763L9.1377 17.0845V17.1009C8.85031 17.402 8.66693 17.7304 8.58209 18.0862L8.57114 18.1081V18.1245L8.55745 18.1492L8.56566 18.1574C8.55745 18.1738 8.55472 18.1847 8.55472 18.1957V18.2121L8.55198 18.2285V18.245L8.5465 18.2778V18.2942L8.53555 18.3024L8.54377 18.3107V18.3271L8.54103 18.3435V18.3599L8.53829 18.3763V18.3928L8.53555 18.4092V18.442L8.53008 18.4585V18.4749L8.52734 18.4913L8.53281 18.5159V18.5324L8.53008 18.5488L8.53829 18.557V18.5734L8.53555 18.5898L8.54103 18.6145L8.53281 18.6227L8.53829 18.6473C8.55745 18.9484 8.64503 19.2193 8.7983 19.4629C8.95431 19.7065 9.15959 19.8954 9.41687 20.0295C9.80826 20.243 10.2462 20.2895 10.7279 20.1691L9.89584 20.8506C9.87121 20.8697 9.86026 20.8917 9.85752 20.9108C9.85205 20.9765 9.87942 21.0093 9.94511 21.0175C10.1175 21.023 10.3009 21.0613 10.4952 21.1298C10.6266 21.1818 10.8292 21.2666 11.1029 21.387C11.122 21.4007 11.1439 21.4007 11.1685 21.3925C11.2315 21.3706 11.2534 21.3323 11.237 21.2776C11.185 21.1434 11.1822 21.0312 11.2288 20.9437C11.2616 20.8807 11.3328 20.7986 11.4422 20.7001C11.4806 20.9053 11.5709 21.0969 11.7159 21.283L11.7296 21.2995C11.7296 21.2995 11.7433 21.3131 11.7515 21.3214L11.7077 21.7538V21.7866L11.7023 21.7976V21.8332L11.6968 21.8441V21.866L11.6913 21.8989V21.9098L11.6858 21.9454V21.9563L11.6831 21.9782V21.9892L11.6913 22.0138V22.0248V22.0357V22.0713L11.6858 22.0932V22.1041L11.6941 22.1178C11.7077 22.5338 11.809 22.8951 12.0006 23.2071L12.0088 23.2318L12.0198 23.2455L12.028 23.2701H12.0389C12.0444 23.2865 12.0526 23.3002 12.0581 23.3084L12.069 23.3221L12.08 23.3358L12.0909 23.3495L12.1019 23.3632L12.1128 23.3768L12.1238 23.3905V23.4015H12.1347L12.1457 23.4152L12.1566 23.4288L12.1676 23.4425L12.1895 23.4672L12.2004 23.4808L12.2113 23.4945L12.2223 23.5082L12.2332 23.5219L12.2442 23.5356L12.2551 23.5493L12.277 23.563L12.288 23.5766L12.2989 23.5903H12.3099L12.3208 23.604L12.3318 23.6177L12.3537 23.6314V23.6423L12.3728 23.656C12.5973 23.8558 12.8518 23.9845 13.1337 24.0474C13.4156 24.1104 13.6948 24.0967 13.9712 24.0091C14.3982 23.8832 14.7403 23.6068 14.9976 23.1798L14.8909 24.2499C14.8881 24.28 14.8909 24.3047 14.9073 24.3211C14.9484 24.3704 14.9949 24.3758 15.0441 24.3348C15.17 24.2171 15.3261 24.1131 15.5122 24.0255C15.6408 23.968 15.8434 23.8859 16.1225 23.7764C16.1472 23.771 16.1636 23.7573 16.1718 23.7354C16.2019 23.6779 16.1909 23.6341 16.1389 23.6068C16.0076 23.5465 15.9255 23.4699 15.8981 23.3741C15.8762 23.3057 15.8707 23.1989 15.8762 23.0511C16.0459 23.1688 16.2484 23.2427 16.4811 23.2701H16.503C16.503 23.2701 16.5221 23.2701 16.5331 23.2701L16.8095 23.6068L16.8314 23.6341L16.8396 23.6423L16.8615 23.6697L16.8697 23.6779L16.8834 23.6943L16.8916 23.7025L16.9053 23.719L16.9135 23.7272L16.9354 23.7545L16.9436 23.7628L16.9573 23.7792L16.9655 23.7874L16.9902 23.7983L16.9984 23.8065L17.0066 23.8148L17.0285 23.8421L17.0422 23.8586L17.0504 23.8668H17.0668C17.3679 24.1542 17.699 24.3375 18.0521 24.4224L18.0767 24.4333H18.0932L18.1151 24.4443L18.1233 24.4361C18.1397 24.4443 18.1534 24.447 18.1616 24.4498H18.178L18.1944 24.4525H18.2273L18.2437 24.458H18.2601L18.2683 24.4689L18.2765 24.4607H18.293L18.3094 24.4634H18.3258L18.3422 24.4662H18.3587L18.3751 24.4689H18.3915L18.4079 24.4716H18.4243L18.4408 24.4744H18.4572L18.4818 24.4689H18.4982L18.5147 24.4716L18.5229 24.4634H18.5393L18.5557 24.4662L18.5804 24.4607L18.5886 24.4689L18.6132 24.4634C18.9143 24.4443 19.1852 24.3567 19.4288 24.2034C19.6724 24.0474 19.8613 23.8421 19.9954 23.5849C20.2089 23.1935 20.2554 22.7555 20.135 22.2711L20.8165 23.1031C20.8356 23.125 20.8548 23.1387 20.8767 23.1415C20.9424 23.1469 20.9752 23.1196 20.9834 23.0539C20.9889 22.8814 21.0272 22.6981 21.0957 22.5037C21.1477 22.3724 21.2325 22.1698 21.3502 21.8961C21.3639 21.8742 21.3666 21.8551 21.3557 21.8304C21.3338 21.7675 21.2955 21.7456 21.2407 21.762C21.1066 21.814 20.9944 21.8167 20.9068 21.7702C20.8439 21.7374 20.7645 21.6662 20.6632 21.5567C20.8657 21.5184 21.0601 21.4281 21.2462 21.283L21.2626 21.2694C21.2626 21.2694 21.2763 21.2557 21.2845 21.2475L21.717 21.2912H21.7525L21.7635 21.2967H21.7991L21.81 21.3022H21.8319L21.8429 21.3049H21.8648L21.8757 21.3077H21.9085L21.9195 21.3131H21.9414L21.9523 21.3159L21.977 21.3077H21.9989L22.0345 21.3131H22.0563L22.0673 21.3159L22.081 21.3049C22.497 21.294 22.8583 21.19 23.1703 20.9984L23.1949 20.9902L23.2086 20.9792L23.2333 20.971V20.9601C23.2497 20.9546 23.2634 20.9464 23.2716 20.9409L23.2853 20.93L23.2989 20.919L23.3126 20.9081L23.3373 20.8862L23.3509 20.8752H23.3619V20.8643L23.3756 20.8533L23.3893 20.8424L23.403 20.8314L23.4166 20.8205L23.4413 20.7986L23.455 20.7876L23.4686 20.7767L23.4823 20.7657L23.496 20.7548L23.5097 20.7438L23.5234 20.722L23.5371 20.711L23.5507 20.7001V20.6891L23.5644 20.6782L23.5781 20.6672L23.5918 20.6453H23.6027L23.6164 20.6234C23.8162 20.399 23.9449 20.1444 24.0078 19.8625C24.0708 19.5806 24.0571 19.3014 23.9695 19.025C23.8436 18.598 23.5672 18.2559 23.1402 17.9986L24.2104 18.1054C24.2405 18.1081 24.2651 18.1054 24.2815 18.089C24.3308 18.0479 24.3363 18.0014 24.2952 17.9521C24.1775 17.8262 24.0735 17.6702 23.9859 17.4841C23.9285 17.3554 23.8463 17.1529 23.7369 16.8737C23.7314 16.8491 23.7177 16.8327 23.6958 16.8245C23.6383 16.7943 23.5945 16.808 23.5672 16.8573C23.507 16.9887 23.4303 17.0708 23.3373 17.0982C23.2688 17.12 23.1621 17.1255 23.0143 17.1201C23.132 16.9504 23.2059 16.7478 23.2333 16.5152V16.4933C23.2333 16.4933 23.2333 16.4741 23.2333 16.4632L23.5699 16.1867L23.5973 16.1648L23.6055 16.1566L23.6329 16.1347L23.6411 16.1265L23.6575 16.1128L23.6657 16.1046L23.6821 16.0909L23.6903 16.0827L23.7177 16.0608L23.7259 16.0526L23.7423 16.0389L23.7505 16.0307L23.7615 16.0088L23.7697 16.0006L23.7779 15.9924L23.8053 15.9705L23.8217 15.9568L23.8299 15.9486V15.9322C24.1173 15.6311 24.3007 15.3027 24.3855 14.9469L24.3965 14.925V14.9085L24.4102 14.8839L24.402 14.8757C24.4102 14.8593 24.4129 14.8483 24.4129 14.8374V14.821L24.4156 14.8046V14.7881L24.4184 14.7717V14.7553L24.4211 14.7389L24.4293 14.7307L24.4211 14.7224V14.706L24.4239 14.6896V14.6567L24.4293 14.6403V14.6239L24.4321 14.6075V14.5911L24.4348 14.5746V14.5582L24.4375 14.5418L24.4321 14.5172L24.4403 14.5144ZM17.9317 10.4418C18.1506 9.78763 18.5311 9.38255 19.0785 9.22107C19.1989 9.18001 19.3193 9.15812 19.4425 9.15264C19.4644 9.15264 19.4836 9.15812 19.5 9.15812C19.8257 9.19097 20.072 9.34971 20.2335 9.63436C20.4032 9.92722 20.4744 10.3378 20.4443 10.8633C20.4388 10.9317 20.4306 11.0083 20.4224 11.0904L20.2226 13.083L20.187 13.4361L19.8366 13.7234C19.6368 13.6085 19.4343 13.4251 19.229 13.1733L18.2875 12.021C18.2875 12.021 18.2793 12.0101 18.2738 12.0046L17.8332 11.4654L17.9344 10.439L17.9317 10.4418ZM13.1748 9.53855C13.2295 9.4236 13.3007 9.32233 13.3855 9.23475C13.4019 9.22106 13.4184 9.20738 13.4293 9.19917C13.6839 8.99115 13.9685 8.93094 14.286 9.01579C14.6144 9.10338 14.9538 9.3415 15.3042 9.73562C15.348 9.78763 15.3972 9.84783 15.4492 9.91352L16.7192 11.4627L16.9436 11.7364L16.8998 12.1852C16.6781 12.2455 16.4044 12.2591 16.0815 12.2263L14.6008 12.0785C14.6008 12.0785 14.5843 12.0785 14.5789 12.0785L13.8837 12.0101L13.2323 11.2136C12.9257 10.5978 12.9065 10.0394 13.1802 9.54129L13.1748 9.53855ZM12.2278 16.9367L12.08 18.4174C12.08 18.4174 12.08 18.4338 12.08 18.4393L12.0116 19.1345L11.2151 19.7859C10.5993 20.0924 10.0409 20.1116 9.54277 19.8379C9.42782 19.7832 9.32655 19.712 9.23897 19.6299C9.22528 19.6135 9.21159 19.597 9.20338 19.5861C8.99537 19.3316 8.93515 19.0469 9.02 18.7294C9.10758 18.401 9.34844 18.0616 9.73983 17.7113C9.79184 17.6675 9.85205 17.6182 9.91774 17.5662L11.4669 16.2962L11.7406 16.0718L12.1895 16.1156C12.2497 16.3373 12.2634 16.611 12.2305 16.9339L12.2278 16.9367ZM12.0252 14.7279C12.0252 14.7279 12.0143 14.7389 12.0088 14.7416L11.4696 15.1822L10.4432 15.081C9.7891 14.862 9.38403 14.4816 9.22254 13.9369C9.18149 13.8165 9.15686 13.6961 9.15412 13.5729C9.15412 13.551 9.15959 13.5318 9.15959 13.5154C9.19243 13.1897 9.35118 12.9434 9.63583 12.7819C9.92869 12.6122 10.3392 12.541 10.8647 12.5712C10.9332 12.5794 11.0098 12.5848 11.0919 12.5931L13.0845 12.7929L13.4375 12.8284L13.7249 13.1788C13.61 13.3786 13.4266 13.5811 13.1748 13.7864L12.0225 14.7279H12.0252ZM15.0825 22.5722C14.8635 23.2263 14.4831 23.6314 13.9357 23.7929C13.8152 23.8339 13.6948 23.8558 13.5716 23.8613C13.5497 23.8613 13.5306 23.8558 13.5142 23.8558C13.1885 23.823 12.9421 23.6642 12.7806 23.3796C12.611 23.0867 12.5398 22.6762 12.5699 22.1507C12.5754 22.0822 12.5836 22.0056 12.5918 21.9235L12.7916 19.931L12.8272 19.5779L13.1775 19.2905C13.3773 19.4054 13.5798 19.5888 13.7851 19.8406L14.7267 20.9929C14.7267 20.9929 14.7349 21.0039 14.7403 21.0093L15.181 21.5485L15.0797 22.5749L15.0825 22.5722ZM16.0596 19.0715H16.0514V19.077H16.0431V19.0852H16.0349V19.0907H16.0267L16.0185 19.1044L16.0103 19.1126L16.0021 19.1208L15.9939 19.129L15.9857 19.1372H15.9775C15.9775 19.1372 15.9638 19.1536 15.961 19.1591L15.9528 19.1728L15.9446 19.181L15.9364 19.1892L15.9282 19.1974C15.9282 19.1974 15.9145 19.2166 15.9008 19.2275C15.8954 19.233 15.8899 19.2385 15.8817 19.2494L15.8735 19.2577L15.8652 19.2713L15.857 19.2796L15.8488 19.2932L15.8406 19.3015V19.3097L15.8324 19.3179L15.8242 19.3316V19.3398L15.8132 19.3535L15.805 19.3671L15.7694 19.3233L15.7585 19.3124L15.7393 19.2878L15.7284 19.2768L15.6791 19.2166L15.66 19.192L15.6545 19.1865L15.6435 19.1728L15.6326 19.1619L15.6271 19.1564L15.608 19.1318L15.5943 19.1126L15.5888 19.1071L15.5779 19.0962L15.5642 19.077L15.5505 19.0579L15.545 19.0524L15.5259 19.0278L15.5204 19.0223L15.5067 19.0031L15.493 18.9839L15.4875 18.9785L15.4684 18.9538L15.4547 18.9347L15.4492 18.9292L15.441 18.9183L15.4301 18.9073L15.4164 18.8882L15.4109 18.8827L15.4054 18.8772L15.3945 18.8663L15.389 18.8608L15.3781 18.8498L15.3726 18.8444L15.3616 18.8334L15.3562 18.8279L15.3507 18.8225L15.3397 18.8088L15.3315 18.7978L15.3261 18.7924L15.3178 18.7787L15.3124 18.7732H15.3014L15.2905 18.7595L15.2795 18.7458L15.2604 18.7212L15.2494 18.7075L15.2439 18.702L15.233 18.6883L15.222 18.6774L15.2166 18.6719L15.2111 18.6665L15.2056 18.661L15.1947 18.65L15.1892 18.6446L15.1837 18.6391L15.1728 18.6254L15.1673 18.6199L15.1618 18.6145L15.1509 18.6008L15.1454 18.5953L15.1399 18.5898L15.1345 18.5844L15.129 18.5789L15.1153 18.5597L15.1098 18.5542L15.1044 18.5488L15.0989 18.5433L15.0879 18.5324L15.0825 18.5269L15.0715 18.5159L15.0524 18.4913L15.0414 18.4804L15.0359 18.4749L15.0305 18.4694L15.025 18.4639L15.0195 18.4585L15.014 18.453L15.0031 18.4393L14.9921 18.4283L14.9757 18.4201L14.9648 18.4064L14.9538 18.3955L14.9483 18.39L14.9429 18.3845L14.9374 18.3791H14.9265L14.921 18.3709L14.9155 18.3654L14.91 18.3599L14.9046 18.3544L14.8991 18.349H14.8881L14.8827 18.3408L14.8772 18.3353L14.8717 18.3298L14.8608 18.3189L14.8553 18.3243L14.8498 18.3189L14.8443 18.3134L14.8389 18.3079L14.8334 18.3024L14.8279 18.3079L14.8224 18.3024C14.8224 18.3024 14.806 18.2888 14.7978 18.2833L14.7923 18.2778L14.7869 18.2723H14.7759L14.7677 18.2587H14.7568L14.7513 18.2504L14.7458 18.245L14.7403 18.2395L14.7349 18.245L14.7294 18.2395L14.713 18.2313L14.7075 18.2258L14.702 18.2203H14.6911L14.6746 18.2121L14.6692 18.2067L14.6637 18.2012H14.6528L14.6363 18.193L14.6309 18.1875L14.6144 18.1793H14.6035L14.5871 18.1711L14.5816 18.1656L14.5761 18.1601H14.5652H14.5542L14.5487 18.1546H14.5378H14.5268L14.5214 18.1492H14.5104L14.505 18.1409L14.4913 18.1355H14.4803L14.4749 18.1409L14.4694 18.1355L14.4639 18.13H14.453L14.4475 18.1327L14.442 18.1273H14.4311L14.4256 18.1191H14.4146H14.4037H14.3927H14.3818L14.3763 18.1136L14.3708 18.1191L14.3654 18.1136H14.3544H14.3435H14.3325H14.3216L14.3161 18.1081L14.3106 18.1136L14.3052 18.1081L14.2997 18.1136L14.2942 18.1081L14.2887 18.1136L14.2833 18.1081H14.2668L14.2559 18.1108H14.2449H14.234H14.223L14.2176 18.1026C14.2066 18.1026 14.1957 18.1054 14.1902 18.1054H14.1738H14.1628H14.1519H14.1409C14.13 18.1054 14.1163 18.1081 14.1026 18.1054C14.0944 18.1054 14.0862 18.1054 14.0752 18.1081H14.0643H14.0479H14.0369L14.0205 18.1108H14.0096L14.0041 18.1136H13.9931L13.9767 18.1163L13.9712 18.1218L13.9548 18.1273H13.9384V18.13L13.9439 18.0725V18.0561L13.9493 18.026V18.0096L13.9576 17.933V17.9028L13.9603 17.8946V17.8782L13.963 17.8618V17.8536L13.9658 17.8235V17.7988V17.7769L13.9712 17.7523V17.7304L13.974 17.7222V17.7058L13.9767 17.6894V17.6811L13.9794 17.6565V17.6346L13.9822 17.6264V17.61L13.9849 17.5935V17.5717L13.9877 17.5634V17.547L13.9904 17.5306V17.506L13.9931 17.4896V17.4677L13.9959 17.4512V17.443V17.4266V17.4102L13.9986 17.3938V17.3773V17.3691V17.3527V17.3445L13.9904 17.3363V17.3198L13.9931 17.3034V17.287L13.9959 17.2706V17.2542V17.246V17.2159L13.9986 17.2076V17.1994V17.1912V17.1748V17.1666V17.1584V17.142V17.1337V17.1255V17.1091V17.1009V17.0845V17.0763V17.0544L14.0013 17.0461V17.0379V17.0297V17.0133V17.0051V16.9887L14.0041 16.9723V16.9558L14.0068 16.9394V16.923V16.9148V16.9066V16.8984V16.8902L14.0096 16.8655L14.0041 16.8491V16.8409V16.8327V16.8162V16.808V16.7998V16.7916L13.9959 16.7834V16.7752V16.767V16.7588V16.7506V16.7423L13.9904 16.7341V16.7259V16.7177V16.7095V16.6931H13.9822V16.6767V16.6602H13.9767V16.652C13.9767 16.652 13.9767 16.6301 13.9712 16.6192V16.611V16.6028L13.963 16.5946V16.5781L13.9576 16.5699V16.5617V16.5453H13.9493V16.5371L13.9439 16.5206V16.5124V16.5042L13.9357 16.496L13.9302 16.4796V16.4714V16.4632L13.922 16.455L13.9165 16.4385V16.4303L13.911 16.4139L13.9028 16.4057L13.8973 16.3893V16.3811V16.3729L13.8919 16.3646L13.8837 16.3564V16.3482L13.8782 16.34L13.87 16.3318V16.3236L13.8645 16.3154V16.3072L13.859 16.2935L13.8508 16.2825H13.8426V16.2743V16.2661L13.8371 16.2579H13.8289V16.2497L13.8207 16.2415V16.2333L13.8152 16.225L13.807 16.2168L13.7988 16.2086L13.7906 16.2004V16.1922H13.7824V16.184L13.7769 16.1758L13.7687 16.1676L13.7605 16.1594L13.7523 16.1512V16.1429H13.7441V16.1347H13.7359V16.1265H13.7276V16.1183L13.714 16.1101L13.7057 16.1019L13.6975 16.0937L13.6893 16.0855L13.6811 16.0773V16.0691C13.6811 16.0691 13.6647 16.0554 13.6592 16.0499L13.6455 16.0417L13.6373 16.0335L13.6291 16.0253L13.6209 16.017C13.6209 16.017 13.6017 16.0006 13.5908 15.9897C13.5853 15.9842 13.5798 15.9787 13.5689 15.9732L13.5607 15.965L13.547 15.9568L13.5415 15.9486L13.5278 15.9404L13.5196 15.9322H13.5114L13.5032 15.924L13.4895 15.9158H13.4813L13.4512 15.8966L13.495 15.861L13.506 15.8501L13.5306 15.8309L13.5415 15.82L13.6017 15.7707L13.6264 15.7516L13.6319 15.7461L13.6565 15.7269L13.662 15.7214L13.6866 15.7023L13.703 15.6886L13.7085 15.6831L13.7222 15.6722L13.7578 15.6421L13.7632 15.6366L13.7769 15.6257L13.7879 15.6147L13.7933 15.6092L13.8125 15.5955L13.8317 15.5819L13.8371 15.5764L13.8481 15.5654L13.8618 15.5545L13.8809 15.5408L13.8864 15.5353L13.9001 15.5244L13.911 15.5134L13.9302 15.4998L13.9357 15.4943L13.9411 15.4888L13.9548 15.4779L13.9603 15.4724L13.9712 15.4614L13.9767 15.4559L13.9904 15.445L13.9959 15.4395L14.0013 15.4341L14.0123 15.4231L14.026 15.4122L14.0315 15.4067L14.0451 15.3957L14.0506 15.3903V15.3793L14.0643 15.3684L14.0752 15.3574L14.0889 15.3465L14.0999 15.3383L14.1136 15.3273L14.119 15.3218L14.13 15.3109L14.1437 15.3L14.1491 15.2945L14.1546 15.289L14.1601 15.2835L14.171 15.2726L14.1765 15.2671L14.182 15.2616L14.1957 15.2534L14.2012 15.248L14.2066 15.2425L14.2176 15.2315L14.223 15.2261L14.2285 15.2206L14.234 15.2151L14.2395 15.2096L14.2586 15.1959L14.2696 15.185L14.275 15.1795L14.286 15.1686L14.2915 15.1631L14.3024 15.1521L14.3134 15.1412L14.3271 15.1302L14.338 15.1193L14.3435 15.1138L14.3489 15.1084L14.3626 15.0974L14.3681 15.0919L14.3736 15.0865L14.3791 15.081L14.39 15.07L14.3982 15.0536L14.4037 15.0481L14.4092 15.0427L14.4228 15.0317L14.4283 15.0263L14.4338 15.0208L14.4393 15.0153V15.0044L14.4475 14.9989L14.453 14.9934L14.4584 14.9879L14.4639 14.9825L14.4694 14.977V14.966L14.4776 14.9606L14.4831 14.9551L14.4885 14.9496L14.5022 14.9387L14.4967 14.9332L14.5022 14.9277L14.5077 14.9222L14.5132 14.9168L14.5186 14.9113L14.5132 14.9058L14.5186 14.9003C14.5186 14.9003 14.5323 14.8839 14.5378 14.873L14.5433 14.8675L14.5487 14.862V14.8511L14.5624 14.8401V14.8292L14.5706 14.8237L14.5761 14.8182L14.5816 14.8128L14.5761 14.8073L14.5816 14.8018L14.5898 14.7854L14.5953 14.7799L14.6008 14.7744V14.7635L14.609 14.7471L14.6144 14.7416L14.6199 14.7361V14.7252L14.6281 14.7088L14.6336 14.7033L14.6418 14.6869V14.6759L14.65 14.6595L14.6555 14.654L14.661 14.6485V14.6376V14.6266L14.6664 14.6212V14.6102V14.5993L14.6719 14.5938V14.5828L14.6801 14.5774L14.6856 14.5637V14.55L14.6801 14.5445L14.6856 14.5391L14.6911 14.5336V14.5226L14.6856 14.5172L14.6911 14.5117V14.5007L14.6993 14.4953V14.4843V14.4734V14.4624V14.4515L14.7048 14.446L14.6993 14.4405L14.7048 14.4351V14.4241V14.4132V14.4022V14.3913L14.7102 14.3858L14.7048 14.3803L14.7102 14.3748L14.7048 14.3694L14.7102 14.3639L14.7048 14.3584L14.7102 14.3529L14.7048 14.3365V14.3256V14.3146V14.3037V14.2927L14.7102 14.2873C14.7102 14.2873 14.7075 14.2654 14.7075 14.2599V14.2435L14.7048 14.2325V14.2216V14.2106C14.702 14.1997 14.702 14.186 14.7048 14.1723C14.7048 14.1641 14.7048 14.1559 14.702 14.1449V14.134L14.6993 14.1176V14.1066V14.0902V14.0792L14.6938 14.0738V14.0628V14.0464L14.6883 14.0409V14.0245L14.6801 14.0081L14.7376 14.0136H14.754L14.7841 14.019H14.8005L14.8772 14.0272H14.9073L14.9155 14.0327H14.9319L14.9483 14.0354H14.9566L14.9867 14.0409H15.0086L15.0168 14.0437H15.0332L15.0578 14.0491H15.0797L15.0879 14.0519H15.1044L15.1208 14.0546H15.129L15.1536 14.0573H15.1755L15.1837 14.0601H15.2002L15.2166 14.0628H15.2412L15.2494 14.0656H15.2658L15.2823 14.0683H15.3069L15.3151 14.071H15.3233H15.3397H15.3479H15.3644H15.3726H15.389H15.3972H15.4054H15.4219L15.4383 14.0738H15.4465H15.4629H15.4711L15.4793 14.0683H15.4957L15.5122 14.071H15.5286L15.545 14.0738H15.5614H15.5697H15.5861L15.6025 14.0765H15.6107H15.6189H15.6271H15.6435H15.66L15.6764 14.0792H15.6846H15.6928H15.7092H15.7174H15.7257H15.7339H15.7421L15.7667 14.082H15.7749H15.7831H15.7914H15.8078H15.816H15.8324H15.8488L15.8652 14.0847H15.8817H15.8899H15.8981H15.9145H15.9227H15.9391H15.9556L15.972 14.0792H15.9802H15.9884H16.0048L16.0213 14.082H16.0295L16.0377 14.0765H16.0459H16.0541H16.0623H16.0705H16.0787L16.0869 14.071H16.0952H16.1034H16.128V14.0656H16.1362H16.1444H16.1526H16.1608V14.0573H16.169C16.18 14.0573 16.191 14.0574 16.2019 14.0519H16.2101H16.2183L16.2265 14.0437H16.243L16.2512 14.0382H16.2676H16.2758V14.03H16.284L16.3004 14.0245H16.3086H16.3169L16.3251 14.0163L16.3415 14.0108H16.3497H16.3579L16.3661 14.0053L16.3825 13.9999H16.3908L16.4072 13.9944L16.4154 13.9862L16.4318 13.9807H16.44H16.4482L16.4647 13.967H16.4729L16.4811 13.9616L16.4893 13.9533H16.4975L16.5057 13.9479H16.5139L16.5303 13.9424L16.5385 13.9342V13.926H16.5468H16.555L16.5632 13.9205V13.9123H16.5714L16.5796 13.9041H16.5878L16.596 13.8986L16.6042 13.8904L16.6125 13.8822L16.6207 13.874H16.6289V13.8658H16.6371L16.6453 13.8603L16.6535 13.8521L16.6617 13.8439L16.6699 13.8356H16.6781V13.8274H16.6863V13.8192H16.6946V13.811H16.7028L16.711 13.7973L16.7192 13.7891L16.7274 13.7809L16.7356 13.7727L16.7438 13.7645H16.752C16.752 13.7645 16.7657 13.7481 16.7685 13.7426L16.7767 13.7289L16.7849 13.7207L16.7931 13.7125L16.8013 13.707C16.8013 13.707 16.815 13.6878 16.8287 13.6769C16.8341 13.6714 16.8396 13.666 16.8478 13.655L16.856 13.6468L16.8643 13.6331L16.8725 13.6249L16.8807 13.6112L16.8889 13.603V13.5948L16.8971 13.5866L16.9053 13.5729V13.5647L16.9163 13.551L16.9245 13.5373L16.96 13.5811L16.971 13.5948L16.9902 13.6194L17.0011 13.6304L17.0504 13.6906L17.0695 13.7152L17.075 13.7207L17.0859 13.7316L17.0969 13.7426L17.1024 13.7481L17.1215 13.7727L17.1352 13.7919L17.1407 13.7973L17.1516 13.8083L17.1653 13.8274L17.179 13.8466L17.1845 13.8521L17.1954 13.863L17.2064 13.8767L17.2119 13.8822L17.2255 13.9013L17.2392 13.9205L17.2447 13.926L17.2556 13.9369L17.2666 13.9479L17.2803 13.967L17.2858 13.9725L17.2967 13.9835L17.3076 13.9971L17.3213 14.0163L17.3268 14.0218L17.3323 14.0272L17.3432 14.0382L17.3487 14.0437L17.3569 14.0546L17.3624 14.0601L17.3706 14.071L17.3761 14.0765L17.3815 14.082L17.3925 14.0929L17.4034 14.1039L17.4089 14.1093L17.4199 14.1203L17.4253 14.1258H17.4363L17.4472 14.1395L17.4582 14.1504L17.4691 14.1614L17.4883 14.186L17.4938 14.1915L17.5129 14.2161L17.5184 14.2216L17.5239 14.227L17.5293 14.2325L17.5403 14.2462L17.5458 14.2517L17.5512 14.2572L17.5622 14.2681L17.5677 14.2736L17.5731 14.279L17.5841 14.29L17.5896 14.2955L17.595 14.3009L17.6005 14.3064L17.606 14.3119L17.6197 14.331L17.6251 14.3365L17.6306 14.342L17.6361 14.3475L17.647 14.3611L17.6525 14.3666L17.6717 14.3913L17.6826 14.4022L17.6936 14.4159L17.699 14.4214L17.7045 14.4269L17.71 14.4323L17.7155 14.4378L17.7264 14.4515L17.7319 14.457L17.7428 14.4706L17.7593 14.4789L17.7647 14.4843L17.7702 14.4898L17.7811 14.5007L17.7866 14.5062L17.7976 14.5199H17.8085L17.814 14.5281L17.8195 14.5336L17.8249 14.5391L17.8304 14.5445L17.8359 14.55H17.8468L17.8523 14.5582L17.8578 14.5637L17.8633 14.5692L17.8742 14.5801L17.8797 14.5746L17.8852 14.5801L17.8906 14.5856L17.8961 14.5911L17.9016 14.5965L17.907 14.5911L17.9125 14.5965C17.9125 14.5965 17.9289 14.6102 17.9372 14.6157L17.9426 14.6212L17.9481 14.6266H17.9591L17.97 14.6403H17.981L17.9864 14.6485L17.9919 14.654L17.9974 14.6595L18.0028 14.654L18.0083 14.6595L18.0247 14.6677L18.0302 14.6732L18.0357 14.6787H18.0466L18.0631 14.6869L18.0685 14.6923L18.074 14.6978H18.085L18.1014 14.706L18.1069 14.7115L18.1233 14.7197H18.1342L18.1506 14.7279L18.1561 14.7334L18.1616 14.7389H18.1725H18.1835L18.189 14.7443H18.1999H18.2109L18.2163 14.7498H18.2273L18.2328 14.758L18.2464 14.7635H18.2574L18.2629 14.758L18.2683 14.7635L18.2738 14.769H18.2848L18.2902 14.7662L18.2957 14.7717H18.3067L18.3121 14.7799H18.3231H18.334H18.345H18.3559L18.3614 14.7854L18.3669 14.7799L18.3723 14.7854H18.3833H18.3942H18.4052H18.4161L18.4216 14.7909L18.4271 14.7854L18.4326 14.7909L18.438 14.7854L18.4435 14.7909L18.449 14.7854L18.4544 14.7909H18.4709H18.4818H18.4928H18.5037H18.5147L18.5201 14.7991C18.5311 14.7991 18.542 14.7963 18.5475 14.7991L18.5639 14.7936H18.5749H18.5858H18.5968C18.5968 14.7936 18.6214 14.7936 18.6351 14.7936C18.6433 14.7936 18.6515 14.7936 18.6625 14.7909H18.6734H18.6898H18.7008L18.7172 14.7881H18.7281L18.7336 14.7854H18.7446L18.761 14.7827L18.7665 14.7772H18.7829L18.7993 14.769L18.7938 14.8264V14.8429L18.7884 14.873V14.8894L18.7802 14.966V14.9961L18.7774 15.0044V15.0208L18.7747 15.0372V15.0454L18.7719 15.0755V15.0974V15.1056V15.122L18.7665 15.1686V15.1768V15.1932V15.2096V15.2178V15.2397L18.761 15.2644V15.2726V15.289V15.3054L18.7583 15.3301V15.3383V15.3547V15.3711L18.7555 15.393V15.4094L18.7528 15.4258V15.4341V15.4505V15.4751L18.7473 15.4915V15.508L18.7446 15.5244V15.5326V15.549V15.5572L18.75 15.5654V15.5819L18.7473 15.5983V15.6147L18.7446 15.6311V15.6475V15.6558V15.6722L18.7418 15.6886V15.705V15.7132V15.7297V15.7379V15.7461V15.7625V15.7707V15.7789V15.7954V15.8036V15.8118V15.82V15.8282L18.7391 15.8528V15.861V15.8692V15.8775V15.8939V15.9021V15.9185V15.9349L18.7364 15.9513V15.9678V15.976V15.9842V16.0006V16.0088V16.017V16.0253V16.0417L18.7418 16.0581V16.0663V16.0745V16.0909V16.0992V16.1156L18.7473 16.1238V16.132V16.1484V16.1566V16.1648L18.7555 16.1731V16.1813V16.1895V16.1977V16.2141H18.7637V16.2305V16.2469H18.7692V16.2552C18.7692 16.2552 18.7692 16.2771 18.7747 16.288V16.2962V16.3044L18.7829 16.3126V16.3291L18.7884 16.3373V16.3455V16.3537V16.3619H18.7966V16.3701L18.8021 16.3865V16.3948V16.403L18.8103 16.4112L18.8157 16.4276V16.4358V16.444L18.8239 16.4522L18.8294 16.4686V16.4769L18.8349 16.4933L18.8431 16.5015L18.8486 16.5179V16.5261V16.5343L18.8568 16.5425L18.865 16.5508V16.559L18.8705 16.5672L18.8787 16.5754V16.5836L18.8842 16.5918V16.6L18.8896 16.6137L18.8978 16.6247H18.9061V16.6329V16.6411L18.9115 16.6493H18.9197V16.6575L18.928 16.6657V16.6739L18.9334 16.6821L18.9416 16.6903L18.9498 16.6986L18.9581 16.7068V16.715H18.9663V16.7232L18.9717 16.7314L18.98 16.7396L18.9882 16.7478L18.9964 16.756V16.7642H19.0046V16.7724H19.0128V16.7807H19.021V16.7889L19.0347 16.7971L19.0429 16.8053L19.0511 16.8135L19.0593 16.8217L19.0675 16.8299V16.8381C19.0675 16.8381 19.084 16.8491 19.0894 16.8546L19.1031 16.8628L19.1113 16.871L19.1195 16.8792L19.1278 16.8874C19.1278 16.8874 19.1469 16.9011 19.1579 16.9148C19.1633 16.9203 19.1688 16.9257 19.1798 16.9312L19.188 16.9394L19.2017 16.9476L19.2099 16.9558L19.2235 16.964L19.2318 16.9723H19.24L19.2482 16.9805L19.2619 16.9887H19.2701L19.2838 16.9996L19.2975 17.0078L19.2537 17.0434L19.2427 17.0516L19.2181 17.0708L19.2071 17.0817L19.1469 17.131L19.1223 17.1502L19.1168 17.1556L19.0922 17.1748L19.0867 17.1803L19.0621 17.1994L19.0456 17.2131L19.0402 17.2186L19.0265 17.2295L18.9909 17.2596L18.9854 17.2651L18.9717 17.2761L18.9608 17.287L18.9553 17.2925L18.9362 17.3062L18.9197 17.3198L18.9143 17.3253L18.9033 17.3363L18.8896 17.3472L18.8705 17.3609L18.865 17.3664L18.8513 17.3773L18.8404 17.3883L18.8212 17.402L18.8157 17.4074L18.8103 17.4129L18.7966 17.4239L18.7911 17.4293L18.7774 17.4403L18.7719 17.4458L18.7583 17.4567L18.7528 17.4622L18.7473 17.4677L18.7227 17.4868L18.7172 17.4923L18.7035 17.5032L18.698 17.5087V17.5197L18.6844 17.5306L18.6734 17.5416L18.6597 17.5525L18.6488 17.5634L18.6378 17.5744L18.6324 17.5799L18.6214 17.5908L18.6077 17.6018L18.6022 17.6072L18.5968 17.6127L18.5913 17.6182L18.5804 17.6291L18.5749 17.6346L18.5694 17.6401L18.5557 17.651L18.5502 17.6565L18.5448 17.662L18.5338 17.6729L18.5284 17.6784L18.5229 17.6839L18.5174 17.6894L18.5119 17.6948L18.4928 17.7085L18.4873 17.714L18.4818 17.7195L18.4763 17.7249L18.4654 17.7359L18.4599 17.7414L18.449 17.7523L18.438 17.7633L18.4134 17.7824L18.4079 17.7879L18.4024 17.7934L18.397 17.7988L18.3915 17.8043L18.386 17.8098L18.3806 17.8153L18.3751 17.8207L18.3641 17.8317L18.3559 17.8481L18.3504 17.8536L18.345 17.859L18.3313 17.87L18.3258 17.8755L18.3203 17.8809L18.3149 17.8864V17.8974L18.3067 17.9028L18.3012 17.9083L18.2957 17.9138L18.282 17.9247V17.9357L18.2738 17.9412L18.2683 17.9466L18.2629 17.9521L18.2519 17.9631L18.2574 17.9685L18.2519 17.974L18.2464 17.9795L18.241 17.985L18.2355 17.9904L18.241 17.9959L18.2355 18.0014C18.2355 18.0014 18.2218 18.0178 18.2163 18.026L18.2109 18.0315L18.2054 18.037V18.0479L18.1917 18.0588V18.0698L18.178 18.0807L18.1725 18.0862L18.178 18.0917L18.1725 18.0972L18.1643 18.1136L18.1589 18.1191L18.1534 18.1245V18.1355L18.1452 18.1519L18.1397 18.1574L18.1342 18.1628V18.1738L18.126 18.1902L18.1205 18.1957L18.1123 18.2121V18.2231L18.1041 18.2395L18.0986 18.245L18.0932 18.2504V18.2614V18.2723L18.0877 18.2778V18.2888V18.2997L18.0822 18.3052V18.3161L18.074 18.3216L18.0685 18.3353V18.349L18.074 18.3544L18.0685 18.3599L18.0631 18.3654V18.3763L18.0685 18.3818L18.0631 18.3873V18.3982L18.0548 18.4037V18.4146V18.4256V18.4365V18.4475L18.0494 18.453L18.0548 18.4585L18.0494 18.4639V18.4749V18.4858V18.4968V18.5077L18.0439 18.5132L18.0494 18.5187L18.0439 18.5241L18.0494 18.5296L18.0439 18.5351L18.0494 18.5406L18.0439 18.546L18.0494 18.5625V18.5734V18.5844V18.5953V18.6062L18.0439 18.6117C18.0439 18.6117 18.0466 18.6336 18.0466 18.6391V18.6555L18.0494 18.6665V18.6774V18.6883C18.0521 18.6993 18.0521 18.713 18.0494 18.7267C18.0494 18.7349 18.0494 18.7431 18.0494 18.7541V18.765L18.0521 18.7814V18.7924L18.0548 18.8088V18.8197L18.0576 18.8252V18.8362L18.0603 18.8526L18.0658 18.8581L18.0713 18.8745V18.8909L18.0193 18.8854H18.0028L17.9727 18.8799H17.9563L17.8797 18.8717H17.8496L17.8414 18.8663H17.8249L17.8085 18.8635H17.8003L17.7702 18.8608H17.7483L17.7401 18.8581H17.7237L17.7018 18.8553H17.6771L17.6689 18.8526H17.6525L17.6361 18.8498H17.6279L17.6032 18.8471H17.5813L17.5731 18.8444H17.5567L17.5403 18.8416H17.5157L17.5074 18.8389H17.491L17.4746 18.8362H17.45L17.4418 18.8334H17.4336H17.4171H17.4089H17.3925H17.3843H17.3679H17.3596H17.3514H17.335L17.3186 18.8307H17.3104H17.294H17.2858L17.2775 18.8362H17.2611L17.231 18.8307H17.2146L17.1982 18.8279H17.19H17.1735H17.1571L17.1407 18.8252H17.1325H17.1161H17.0996L17.0832 18.8225H17.075H17.0668H17.0504H17.0422H17.0257H17.0175H16.9929L16.9847 18.8197H16.9765H16.9683H16.9518H16.9436H16.9272L16.9108 18.817H16.8944L16.8779 18.8143H16.8615H16.8533H16.8451H16.8287H16.8205H16.804L16.7876 18.8197H16.7794H16.7712H16.7548H16.7466H16.7384H16.7301L16.7219 18.8279H16.7137H16.7055H16.6973H16.6891H16.6809L16.6727 18.8334H16.6645H16.6562H16.648H16.6316V18.8416H16.6234H16.5988V18.8471H16.5906C16.5906 18.8471 16.5687 18.8471 16.5577 18.8498H16.5495H16.5413L16.5331 18.8581H16.5167L16.5084 18.8635H16.492H16.4838V18.8717H16.4756L16.4592 18.8772H16.451H16.4427L16.4345 18.8854L16.4181 18.8909H16.4099H16.4017L16.3935 18.8991L16.3771 18.9046H16.3689L16.3524 18.9101L16.3442 18.9183L16.3278 18.9237H16.3196H16.3114L16.295 18.9374H16.2867L16.2785 18.9429L16.2703 18.9511H16.2621L16.2539 18.9566H16.2457L16.2293 18.962L16.2211 18.9703V18.9785H16.2128H16.2046L16.1964 18.9839V18.9922H16.1882L16.18 18.9976H16.1718L16.1636 19.0031L16.1554 19.0113L16.1472 19.0195L16.1389 19.025H16.1307V19.0332H16.1225L16.1143 19.0387L16.1061 19.0469L16.0979 19.0524L16.0897 19.0606L16.0596 19.0715ZM19.8421 23.4754C19.7874 23.5903 19.7162 23.6916 19.6314 23.7792C19.6149 23.7929 19.5985 23.8066 19.5876 23.8148C19.333 24.0228 19.0484 24.083 18.7309 23.9981C18.4024 23.9106 18.0631 23.6724 17.7127 23.2783C17.6689 23.2263 17.6197 23.1661 17.5677 23.1004L16.2977 21.5513L16.0733 21.2776L16.1171 20.8287C16.3388 20.7685 16.6124 20.7548 16.9354 20.7876L18.4161 20.9354C18.4161 20.9354 18.4326 20.9354 18.438 20.9354L19.1332 21.0039L19.7846 21.8003C20.0912 22.4162 20.1103 22.9745 19.8366 23.4726L19.8421 23.4754ZM23.7943 19.077C23.8354 19.1974 23.86 19.3179 23.8628 19.441C23.8628 19.4629 23.8573 19.4821 23.8573 19.4985C23.8245 19.8242 23.6657 20.0705 23.3811 20.232C23.0882 20.4017 22.6776 20.4729 22.1521 20.4428C22.0837 20.4346 22.0071 20.4291 21.925 20.4209L19.9324 20.2211L19.5794 20.1855L19.292 19.8352C19.4069 19.6354 19.5903 19.4328 19.8421 19.2275L20.9944 18.286C20.9944 18.286 21.0053 18.2751 21.0108 18.2723L21.55 17.8317L22.5764 17.933C23.2305 18.1519 23.6356 18.5324 23.7971 19.0798L23.7943 19.077ZM23.9996 14.2818C23.912 14.6102 23.6712 14.9496 23.2798 15.3C23.2278 15.3437 23.1676 15.393 23.1019 15.445L21.5527 16.715L21.279 16.9394L20.8274 16.8956C20.7672 16.6739 20.7535 16.4002 20.7864 16.0773L20.9342 14.5965C20.9342 14.5965 20.9342 14.5801 20.9342 14.5746L21.0026 13.8822L21.7991 13.2308C22.4149 12.9242 22.9732 12.9051 23.4714 13.1788C23.5863 13.2335 23.6876 13.3019 23.7752 13.3868C23.7889 13.4032 23.8026 13.4196 23.8108 13.4306C24.0188 13.6851 24.079 13.9698 23.9941 14.2873L23.9996 14.2818Z" fill="#FFF9EE"/>
<path d="M57.2707 27.8513V27.9115C57.2516 29.0556 56.8 29.9643 55.9241 30.6376C55.1058 31.2698 54.1369 31.5873 53.0147 31.5873H52.9216C52.8806 31.5873 52.8286 31.5763 52.7684 31.5572C52.1963 31.5353 51.6544 31.4231 51.1453 31.2205H51.0851L51.055 31.1904C51.0139 31.1713 50.9838 31.1603 50.9619 31.1603L50.9318 31.1302H50.9017C50.8826 31.1111 50.8497 31.0892 50.8087 31.07H50.7786L50.7485 31.0399L50.6882 31.0098L50.628 30.9797H50.5979L50.5377 30.9496L50.5076 30.9195H50.4775L50.4474 30.8894L50.3872 30.8593L50.3571 30.8292L50.2968 30.799L50.2667 30.7689C50.2257 30.747 50.1956 30.7279 50.1737 30.7087C50.1326 30.6677 50.0916 30.6376 50.0505 30.6157L50.0204 30.5856L49.9903 30.5555L49.9602 30.5253L49.9 30.4952C49.8808 30.4733 49.848 30.4542 49.8069 30.435V30.4049L49.7768 30.3748L49.7467 30.3447L49.7166 30.3146L49.6865 30.2845L49.6263 30.2544V30.2243H49.5962V30.1942H49.5661V30.1641H49.536V30.1339L49.5059 30.1038L49.4757 30.0737L49.4456 30.0436L49.4155 30.0135V29.9834H49.3854V29.9533L49.3553 29.9232L49.3252 29.8931L49.2951 29.863L49.265 29.8329V29.8028L49.2349 29.7727V29.7426H49.2048L49.1747 29.7125V29.6522H49.1446L49.1145 29.6221L49.0844 29.5619V29.5318L49.0543 29.5017V29.4716L49.0241 29.4415L48.994 29.4114V29.3813L48.9639 29.3512L48.9338 29.3211V29.2608L48.9037 29.2006L48.8736 29.1705L48.8435 29.1103V29.0802L48.8134 29.02L48.7833 28.9899V28.9297L48.7532 28.8695L48.7231 28.8393V28.7791L48.693 28.7189V28.6888H48.6629V28.5958L48.6328 28.5656V28.5054L48.6026 28.4753V28.4151C48.5835 28.3741 48.5725 28.333 48.5725 28.2919V28.2618H48.5424V28.1387H48.5123V27.9854L48.4822 27.9553V27.802L48.4521 27.7719V27.5584L48.422 27.4982V25.7219L48.3919 25.6918V13.6818C48.3317 12.2723 48.0333 11.1994 47.5024 10.4659C46.9906 9.7515 46.2981 9.39296 45.4195 9.39296H45.2662C44.9405 9.43401 44.623 9.52707 44.3165 9.6694C42.9069 10.2414 41.9983 11.4265 41.5904 13.222V23.1792H42.1734C42.3376 23.1792 42.4198 23.2613 42.4198 23.4256C42.4198 23.5898 42.3376 23.6719 42.1734 23.6719H38.7412C38.577 23.6719 38.4949 23.5898 38.4949 23.4256C38.4949 23.2613 38.577 23.1792 38.7412 23.1792H39.2914V12.795C39.2914 12.1217 39.2394 11.6619 39.1381 11.4156C39.0368 11.1693 38.8014 10.9859 38.4347 10.8655C38.2924 10.8053 38.2513 10.693 38.3115 10.5288C38.3307 10.4686 38.3717 10.4275 38.4347 10.4057C39.149 10.0389 39.6691 9.76245 39.9975 9.57907C40.4683 9.29442 40.8542 8.97693 41.1607 8.62933C41.2839 8.50617 41.4071 8.50617 41.5275 8.62933C41.5686 8.67039 41.5877 8.7306 41.5877 8.81271V11.692C42.1597 10.4877 42.9973 9.66119 44.1003 9.20958C44.8146 8.90304 45.5564 8.79628 46.3227 8.8866C47.0891 8.97966 47.798 9.25884 48.4521 9.7296L48.5123 9.75971V9.78982L48.5725 9.81993L48.6026 9.85003L48.6328 9.88013H48.6629L48.693 9.91025L48.7231 9.94036L48.7833 9.97046L48.8134 10.0006L48.8435 10.0307L48.8736 10.0608L48.9037 10.0909L48.9338 10.121L48.9639 10.1511L48.994 10.1812L49.0241 10.2113L49.0543 10.2414L49.0844 10.2715L49.1145 10.3016H49.1446V10.3317L49.1747 10.3618L49.2048 10.392L49.2349 10.4221L49.265 10.4522L49.2951 10.4823L49.3252 10.5124C49.3444 10.5315 49.3663 10.5644 49.3854 10.6054H49.4155L49.4456 10.6657L49.4757 10.6958L49.5059 10.756C50.0971 11.5333 50.4665 12.4721 50.6089 13.5751L50.639 13.6052V13.8515L50.6691 13.9117V27.4517C50.6691 28.6149 50.8634 29.5154 51.2521 30.1476C51.6188 30.7388 52.1306 31.0563 52.7848 31.0974H52.9682C53.1515 31.0974 53.3349 31.0782 53.5183 31.0372C54.1314 30.914 54.5912 30.6485 54.8977 30.2407C55.1824 29.8329 55.3056 29.3019 55.2645 28.6478C55.2426 28.4425 55.2125 28.2181 55.1714 27.9745V27.9142C55.1523 27.3641 55.3247 26.9645 55.6915 26.7182C55.8338 26.6169 55.9871 26.5594 56.1513 26.5485C56.3155 26.5375 56.4688 26.5731 56.6111 26.6552C56.9998 26.8578 57.2242 27.2683 57.2844 27.8814L57.2707 27.8513Z" fill="#55142A"/>
<path d="M56.4442 23.1326C56.6084 23.1326 56.6905 23.2147 56.6905 23.3789C56.6905 23.5431 56.6084 23.6252 56.4442 23.6252H53.012C52.8477 23.6252 52.7656 23.5431 52.7656 23.3789C52.7656 23.2147 52.8477 23.1326 53.012 23.1326H53.5621V12.7484C53.5621 12.0751 53.5101 11.6152 53.4088 11.3689C53.3076 11.1226 53.0722 10.9392 52.7054 10.8188C52.5631 10.7586 52.5221 10.6464 52.5823 10.4821C52.6014 10.4219 52.6425 10.3809 52.7054 10.359C53.4198 9.99221 53.9398 9.71578 54.2683 9.5324C54.739 9.24775 55.1249 8.93025 55.4315 8.58265C55.5547 8.45949 55.6778 8.45949 55.7983 8.58265C55.8393 8.62371 55.8585 8.68393 55.8585 8.76604V23.1353H56.4414L56.4442 23.1326ZM54.6049 5.97703C54.156 5.97703 53.7783 5.79365 53.4718 5.42689C53.1844 5.06013 53.0421 4.63043 53.0421 4.1405C53.0421 3.65058 53.1844 3.22087 53.4718 2.85411C53.7783 2.48735 54.156 2.30397 54.6049 2.30397C55.0538 2.30397 55.4315 2.48735 55.738 2.85411C56.0446 3.22087 56.1978 3.65058 56.1978 4.1405C56.1978 4.63043 56.0446 5.06013 55.738 5.42689C55.4315 5.79365 55.0538 5.97703 54.6049 5.97703Z" fill="#55142A"/>
<path d="M71.1501 23.1327C71.3143 23.1327 71.3965 23.2148 71.3965 23.379C71.3965 23.5433 71.3143 23.6254 71.1501 23.6254H67.6878C67.5236 23.6254 67.4415 23.5433 67.4415 23.379C67.4415 23.2148 67.5236 23.1327 67.6878 23.1327H68.0546L63.4893 15.168L61.3133 17.2208V23.1327H61.8963C62.0605 23.1327 62.1427 23.2148 62.1427 23.379C62.1427 23.5433 62.0605 23.6254 61.8963 23.6254H58.4641C58.2999 23.6254 58.2178 23.5433 58.2178 23.379C58.2178 23.2148 58.2999 23.1327 58.4641 23.1327H59.0143V6.52732C59.0143 5.87317 58.9623 5.4243 58.861 5.17797C58.7597 4.93164 58.5243 4.74006 58.1576 4.59499C58.0153 4.53478 57.9742 4.43077 58.0344 4.28844C58.0536 4.22823 58.0946 4.17623 58.1576 4.13517C58.8719 3.78757 59.392 3.52209 59.7204 3.33871C60.1912 3.03217 60.5771 2.71467 60.8836 2.38897C61.0068 2.26581 61.13 2.25759 61.2504 2.35886C61.2915 2.41907 61.3106 2.48203 61.3106 2.54224V16.542L63.3634 14.5823V14.5522L63.5467 14.3989L64.71 13.2959V13.2658L69.1521 9.00703H68.6923C68.5089 9.00703 68.4159 8.92493 68.4159 8.76071C68.4159 8.59649 68.5089 8.51438 68.6923 8.51438H70.2852C70.4495 8.51438 70.5316 8.59649 70.5316 8.76071C70.5316 8.92493 70.4495 9.00703 70.2852 9.00703H69.8555L65.1999 13.5094L70.6848 23.13H71.1447L71.1501 23.1327Z" fill="#55142A"/>
<path d="M105.354 23.1327C105.519 23.1327 105.601 23.2148 105.601 23.379C105.601 23.5433 105.519 23.6254 105.354 23.6254H101.922C101.758 23.6254 101.676 23.5433 101.676 23.379C101.676 23.2148 101.758 23.1327 101.922 23.1327H102.472V6.52732C102.472 5.87317 102.42 5.4243 102.319 5.17797C102.218 4.93164 101.982 4.74006 101.616 4.59499C101.473 4.53478 101.432 4.43077 101.492 4.28844C101.512 4.22823 101.553 4.17623 101.616 4.13517C102.33 3.78757 102.85 3.52209 103.178 3.33871C103.649 3.03217 104.035 2.71467 104.342 2.38897C104.465 2.26581 104.588 2.25759 104.708 2.35886C104.749 2.41907 104.769 2.48203 104.769 2.54224V23.13H105.352L105.354 23.1327Z" fill="#55142A"/>
<path d="M119.754 8.51985C119.918 8.51985 120 8.60196 120 8.76618C120 8.9304 119.918 9.01251 119.754 9.01251H119.234L114.545 20.9924V21.0225L113.962 22.5552L113.596 23.4447L112.829 25.4674C112.216 27.0411 111.318 28.0703 110.133 28.5629C109.539 28.7874 108.948 28.8476 108.357 28.7463C108.031 28.7052 107.714 28.604 107.407 28.4397C107.183 28.3385 106.978 28.2044 106.794 28.0402C106.181 27.5283 105.803 26.866 105.661 26.0476V26.0175H105.631V25.7712L105.601 25.7411V25.4044C105.601 25.3442 105.612 25.2922 105.631 25.2512C105.691 24.8625 105.825 24.556 106.031 24.3315C106.255 24.0852 106.531 23.973 106.857 23.9949H106.917C107.019 24.014 107.112 24.0551 107.194 24.118C107.336 24.2001 107.448 24.3123 107.53 24.4547C107.591 24.6189 107.613 24.8023 107.591 25.0048V25.0349C107.55 25.2183 107.478 25.4126 107.377 25.6179C107.071 26.1078 106.928 26.5485 106.947 26.9344C106.967 27.3641 107.202 27.7199 107.651 28.0073C107.897 28.1305 108.152 28.2126 108.417 28.2536C108.926 28.3357 109.438 28.2837 109.95 28.1004C110.993 27.6707 111.789 26.7319 112.339 25.2813L113.106 23.3517L107.101 9.01525H106.671C106.507 9.01525 106.425 8.93314 106.425 8.76892C106.425 8.6047 106.507 8.52258 106.671 8.52258H109.857C110.021 8.52258 110.103 8.6047 110.103 8.76892C110.103 8.93314 110.021 9.01525 109.857 9.01525H109.611L114.299 20.2589L118.681 9.01525H118.161C117.997 9.01525 117.915 8.93314 117.915 8.76892C117.915 8.6047 117.997 8.52258 118.161 8.52258H119.754V8.51985Z" fill="#55142A"/>
<path d="M83.661 23.5487H81.9449C81.767 23.5487 81.6794 23.4694 81.6794 23.3133V21.4796C81.3428 22.0324 80.8994 22.4758 80.3492 22.8097C79.3831 23.4201 78.2554 23.6856 76.9636 23.6089C75.6717 23.5296 74.6015 23.1272 73.7558 22.3965L73.6956 22.3362L73.6655 22.3061L73.6053 22.2459C73.5861 22.2267 73.5642 22.2076 73.5451 22.1857L73.4848 22.1255L73.4547 22.0653L73.3945 22.0352C73.3945 22.016 73.3754 21.9968 73.3343 21.9749C72.7431 21.2469 72.4475 20.4176 72.4475 19.4898V19.2243L72.4776 19.1942V18.9588L72.5077 18.9287V18.811L72.5378 18.7508V18.7207L72.5679 18.6604V18.5729L72.5981 18.5428V18.4825L72.6282 18.4223V18.3922L72.6583 18.332V18.3019L72.6884 18.2417V18.2116L72.7185 18.1815V18.1213L72.7486 18.0911V18.061L72.7787 18.0309V18.0008L72.8088 17.9406L72.8389 17.9105C73.2713 17.0046 73.9529 16.334 74.8807 15.8988C75.8058 15.4664 76.8514 15.2392 78.0146 15.2173H81.6822V14.3606C81.6411 12.743 81.3373 11.5223 80.7653 10.693C80.1741 9.84456 79.2955 9.42032 78.1323 9.42032H78.0146C77.7573 9.43948 77.511 9.46959 77.2756 9.50791C76.605 9.64476 76.1233 9.93214 75.8277 10.3646C75.5321 10.7998 75.4226 11.3417 75.502 11.9904C75.6389 12.4639 75.6115 12.858 75.4144 13.1728C75.2776 13.3507 75.1079 13.4683 74.9108 13.5286C74.8314 13.5477 74.7521 13.5587 74.6754 13.5587C74.6152 13.5587 74.5577 13.5477 74.4975 13.5286C74.2402 13.4902 74.035 13.3507 73.8762 13.1153C73.7175 12.8799 73.6409 12.5843 73.6409 12.2285C73.6409 11.38 74.0952 10.6219 75.0011 9.9513C75.6115 9.49696 76.3313 9.19316 77.1606 9.03441H77.1907C77.448 8.9742 77.7135 8.94682 77.9899 8.94682H78.0201C78.198 8.92766 78.3759 8.92766 78.551 8.94682H78.6988C80.3356 9.04536 81.6274 9.58728 82.5717 10.5726C83.4776 11.5388 83.932 12.8306 83.932 14.4455V15.2447C84.8981 15.2063 85.7165 15.0777 86.3871 14.8615C86.762 14.7438 87.1069 14.596 87.4217 14.4181V6.99534C87.4217 6.34393 87.3669 5.90054 87.2602 5.66516C87.1507 5.42978 86.929 5.24092 86.5951 5.10407C86.4363 5.06575 86.3871 4.96722 86.4473 4.80848C86.4664 4.74826 86.5075 4.69899 86.565 4.66068C87.2739 4.32676 87.7775 4.06948 88.0731 3.89158C88.5274 3.61514 88.9106 3.31133 89.2253 2.97468C89.3239 2.85699 89.4333 2.85699 89.551 2.97468C89.6112 3.01574 89.6386 3.07321 89.6386 3.15259V11.5525C90.2107 10.3892 91.0975 9.59002 92.299 9.15758C93.0681 8.86198 93.8673 8.77439 94.6939 8.89208C95.5615 8.99061 96.3689 9.29168 97.1189 9.79529C97.8688 10.2989 98.4381 10.9229 98.835 11.6729C99.2482 12.4611 99.4562 13.6161 99.4562 15.1324V22.9986H99.9872C100.146 22.9986 100.223 23.078 100.223 23.234C100.223 23.39 100.143 23.4694 99.9872 23.4694H96.6755C96.5167 23.4694 96.4401 23.39 96.4401 23.234C96.4401 23.078 96.5195 22.9986 96.6755 22.9986H97.2064V14.0979C97.1462 12.5788 96.7931 11.4074 96.1417 10.5781C95.6682 9.98689 95.1017 9.61191 94.4421 9.45316C93.7825 9.29442 93.1146 9.34369 92.4468 9.60097C91.1057 10.0936 90.2079 11.0899 89.7563 12.587L89.6961 12.6171C89.6961 12.6582 89.6852 12.6965 89.666 12.7348C88.9161 14.0349 87.8705 14.9025 86.5321 15.3377C85.8232 15.5539 84.9556 15.6826 83.9292 15.7209V23.0561H84.4602C84.619 23.0561 84.6956 23.1354 84.6956 23.2914C84.6956 23.4475 84.6162 23.5268 84.4602 23.5268H83.661V23.5487ZM78.0118 15.7127C77.2236 15.7127 76.553 15.9207 76.0002 16.334C75.4473 16.7473 75.0449 17.281 74.7877 17.9297C74.5523 18.54 74.4619 19.1723 74.5222 19.8237C74.5824 20.4942 74.7986 21.0772 75.1736 21.5671C76.0412 22.7687 77.4508 23.1738 79.4022 22.7796C79.6376 22.6811 79.8648 22.5634 80.0838 22.4238C80.8337 21.9503 81.3647 21.2798 81.6794 20.4121V15.71H78.0118V15.7127ZM87.4162 23.0177V15.4472C88.303 15.0339 89.042 14.4017 89.6332 13.5559V23.0177H90.1641C90.342 23.0177 90.4296 23.0971 90.4296 23.2531C90.4296 23.4091 90.342 23.4885 90.1641 23.4885H86.8524C86.6936 23.4885 86.617 23.4091 86.617 23.2531C86.617 23.0971 86.6963 23.0177 86.8524 23.0177H87.4134H87.4162Z" fill="#55142A"/>
</svg>
