<svg width="200" height="200" viewBox="0 0 200 200" fill="none" xmlns="http://www.w3.org/2000/svg">
<path d="M168.38 99.999L100 31.6191L31.6202 99.999L100 168.379L168.38 99.999Z" fill="#FFF9EE"/>
<path d="M132.865 91.7441L132.872 91.6756L132.878 91.6089L132.848 91.5737L132.855 91.5071L132.863 91.4404L132.839 91.3367L132.874 91.3071L132.852 91.2034C132.774 89.9608 132.415 88.8349 131.774 87.8275C131.133 86.82 130.278 86.0386 129.211 85.483C127.591 84.6034 125.78 84.4089 123.776 84.9071L127.224 82.083C127.322 82.0034 127.374 81.9182 127.385 81.8275C127.411 81.5608 127.291 81.4145 127.024 81.3886C126.305 81.3608 125.548 81.2071 124.744 80.9256C124.204 80.7145 123.363 80.3608 122.222 79.8645C122.139 79.8108 122.05 79.8034 121.955 79.8386C121.7 79.9256 121.605 80.0849 121.672 80.3145C121.885 80.8756 121.896 81.3367 121.704 81.6978C121.565 81.9571 121.27 82.2941 120.815 82.7071C120.661 81.8608 120.283 81.0571 119.683 80.2978L119.624 80.2237C119.592 80.1941 119.565 80.1663 119.535 80.1367L119.713 78.3478L119.726 78.2052L119.731 78.1571L119.744 78.0145L119.75 77.9682L119.761 77.8719L119.765 77.8256L119.776 77.7293L119.78 77.683L119.794 77.5404L119.8 77.4923L119.809 77.3978L119.815 77.3515L119.778 77.2515L119.781 77.2034L119.787 77.1571L119.8 77.0145L119.811 76.9182L119.817 76.8719L119.774 76.8182C119.722 75.0997 119.3 73.5941 118.507 72.3089L118.47 72.2089L118.428 72.1571L118.391 72.0571L118.344 72.0515C118.318 71.9867 118.291 71.9349 118.265 71.9015L118.222 71.8478L118.18 71.796L118.137 71.7441L118.094 71.6904L118.052 71.6386L118.011 71.5867L118.015 71.5386L117.968 71.533L117.926 71.4812L117.883 71.4293L117.841 71.3756L117.798 71.3237L117.757 71.2719L117.715 71.2182L117.63 71.1163L117.587 71.0626L117.544 71.0108L117.502 70.9571L117.413 70.9015L117.37 70.8497L117.328 70.7978L117.281 70.7923L117.239 70.7386L117.196 70.6867L117.105 70.6312L117.111 70.583L117.022 70.5275C116.087 69.7034 115.039 69.1626 113.872 68.9015C112.707 68.6441 111.55 68.6941 110.402 69.0571C108.635 69.5793 107.217 70.7256 106.152 72.4923L106.594 68.0571C106.605 67.933 106.583 67.8349 106.528 67.7645C106.359 67.5552 106.168 67.5386 105.963 67.7089C105.437 68.1978 104.791 68.6256 104.024 68.9923C103.492 69.2237 102.648 69.57 101.491 70.0256C101.392 70.0478 101.324 70.1034 101.283 70.196C101.163 70.4386 101.207 70.6163 101.42 70.733C101.967 70.9793 102.3 71.2978 102.42 71.6923C102.505 71.9719 102.535 72.42 102.505 73.033C101.8 72.5441 100.965 72.2441 100.002 72.1293L99.9073 72.12C99.8647 72.12 99.824 72.12 99.7832 72.12L98.6425 70.7275L98.5517 70.6182L98.5221 70.5812L98.4314 70.4719L98.3999 70.4349L98.3406 70.3608L98.311 70.3256L98.2499 70.2515L98.2203 70.2145L98.1295 70.1052L98.0999 70.0682L98.0388 69.996L98.0092 69.9589L97.911 69.9163L97.8814 69.8793L97.8499 69.8441L97.7592 69.733L97.6999 69.6589L97.6703 69.6237L97.6036 69.6163C96.3517 68.4349 94.9888 67.6719 93.5184 67.3237L93.4203 67.2793L93.3536 67.2719L93.2573 67.2293L93.2203 67.2608C93.1555 67.2312 93.0999 67.2145 93.0555 67.2089L92.9888 67.2015L92.9221 67.1941L92.8555 67.1886L92.7888 67.1812L92.7221 67.1737L92.6554 67.1663L92.624 67.1293L92.5888 67.1608L92.5221 67.1534L92.4555 67.146L92.3888 67.1386L92.2554 67.1256L92.1888 67.12L92.1221 67.1126L92.0555 67.1052L91.9888 67.0978L91.9221 67.0904L91.8554 67.083L91.7517 67.1071L91.6851 67.0997L91.6184 67.0923L91.5814 67.1237L91.5147 67.1163L91.448 67.1089L91.3462 67.1312L91.3147 67.096L91.2129 67.12C89.9684 67.1978 88.8443 67.5571 87.8351 68.1978C86.8277 68.8386 86.0462 69.6941 85.4906 70.7589C84.611 72.3793 84.4184 74.1904 84.9147 76.196L82.0906 72.746C82.0129 72.6478 81.9258 72.596 81.8369 72.5867C81.5703 72.5589 81.424 72.6812 81.3962 72.9478C81.3703 73.6645 81.2147 74.4219 80.9332 75.2256C80.7221 75.7682 80.3684 76.6071 79.874 77.7478C79.8203 77.833 79.811 77.9219 79.8462 78.0145C79.9332 78.27 80.0925 78.3645 80.3221 78.2978C80.8832 78.0849 81.3443 78.0738 81.7073 78.2663C81.9666 78.4052 82.3017 78.7015 82.7147 79.1552C81.8703 79.3089 81.0666 79.6867 80.3054 80.2886L80.2332 80.3478C80.2017 80.3775 80.174 80.4071 80.1462 80.4367L78.3554 80.2571L78.2129 80.2441L78.1666 80.2386L78.024 80.2256L77.9758 80.22L77.8814 80.2108L77.8332 80.2052L77.7388 80.196L77.6906 80.1904L77.5499 80.1775L77.5017 80.1719L77.4073 80.1626L77.3592 80.1589L77.2592 80.196L77.2129 80.1904L77.1647 80.1849L77.0221 80.1719L76.9277 80.1626L76.8795 80.1589L76.8277 80.2015C75.1073 80.2515 73.6036 80.6738 72.3184 81.4663L72.2184 81.5034L72.1647 81.546L72.0666 81.583L72.0629 81.6312C71.9962 81.6571 71.9462 81.6849 71.911 81.7108L71.8592 81.7534L71.8073 81.7941L71.7536 81.8367L71.7017 81.8793L71.6499 81.9219L71.5962 81.9645L71.5499 81.9589L71.5443 82.0071L71.4906 82.0497L71.4388 82.0923L71.3869 82.133L71.3332 82.1756L71.2814 82.2182L71.2295 82.2608L71.1758 82.3034L71.124 82.346L71.0721 82.3867L71.0184 82.4293L70.9666 82.4719L70.911 82.5626L70.8573 82.6034L70.8055 82.646L70.7999 82.6941L70.698 82.7793L70.6406 82.8682L70.5943 82.8626L70.5388 82.9534C69.7147 83.8886 69.174 84.9367 68.9129 86.1034C68.6536 87.2682 68.7036 88.4256 69.0666 89.5719C69.5888 91.3404 70.7351 92.7571 72.5036 93.8219L68.0684 93.3812C67.9425 93.3682 67.8443 93.3904 67.774 93.446C67.5666 93.6163 67.548 93.8052 67.7184 94.0126C68.2073 94.5367 68.6351 95.183 69.0017 95.9515C69.2351 96.483 69.5814 97.3275 70.0369 98.4867C70.0592 98.5849 70.1147 98.6515 70.2054 98.6941C70.448 98.8145 70.6277 98.7682 70.7443 98.5571C70.9888 98.0108 71.3092 97.6775 71.7017 97.5552C71.9832 97.47 72.4295 97.4423 73.0425 97.4701C72.5554 98.1775 72.2536 99.0108 72.1406 99.9756L72.1295 100.07C72.1295 100.111 72.1295 100.153 72.1295 100.192L70.7369 101.333L70.6277 101.422L70.5906 101.453L70.4814 101.544L70.4462 101.574L70.3721 101.633L70.3351 101.664L70.261 101.724L70.2258 101.755L70.1166 101.844L70.0795 101.876L70.0054 101.935L69.9703 101.966L69.9258 102.063L69.8906 102.094L69.8536 102.124L69.7443 102.214L69.6703 102.274L69.6351 102.305L69.6277 102.372C68.4462 103.624 67.6814 104.985 67.3332 106.457L67.2906 106.553L67.2832 106.62L67.2388 106.718L67.2703 106.755C67.2406 106.818 67.2258 106.874 67.2203 106.918L67.2129 106.985L67.2054 107.052L67.198 107.118L67.1851 107.252L67.1777 107.318L67.1425 107.35L67.174 107.385L67.1666 107.453L67.1592 107.518L67.1517 107.587L67.1443 107.653L67.1369 107.72L67.1295 107.787L67.1166 107.92L67.1092 107.987L67.1036 108.053L67.0962 108.12L67.1184 108.222L67.111 108.29L67.1054 108.357L67.1351 108.392L67.1277 108.459L67.1203 108.526L67.1443 108.629L67.1092 108.659L67.1314 108.763C67.2092 110.005 67.5684 111.131 68.2092 112.139C68.8499 113.148 69.7055 113.927 70.7721 114.483C72.3925 115.363 74.2036 115.557 76.2073 115.059L72.7592 117.883C72.661 117.963 72.6092 118.048 72.598 118.137C72.5721 118.403 72.6925 118.55 72.9592 118.576C73.6777 118.603 74.4351 118.757 75.2388 119.039C75.7795 119.25 76.6203 119.603 77.761 120.1C77.8443 120.153 77.9332 120.161 78.0277 120.126C78.2832 120.039 78.3777 119.879 78.311 119.65C78.098 119.089 78.0869 118.627 78.2795 118.264C78.4184 118.005 78.7129 117.668 79.1684 117.255C79.3221 118.102 79.6999 118.905 80.2999 119.664L80.3592 119.739C80.3906 119.768 80.4184 119.796 80.4499 119.826L80.2703 121.616L80.2573 121.757L80.2517 121.805L80.2388 121.948L80.2332 121.994L80.2221 122.09L80.2092 122.231L80.2036 122.279L80.1906 122.422L80.1851 122.47L80.1758 122.564L80.1703 122.611L80.2073 122.711L80.2036 122.759L80.198 122.805L80.1851 122.948L80.174 123.042L80.1684 123.09L80.211 123.144C80.2629 124.863 80.6851 126.368 81.4777 127.653L81.5147 127.753L81.5573 127.805L81.5943 127.905L81.6406 127.911C81.6666 127.976 81.6943 128.027 81.7203 128.061L81.7629 128.114L81.8055 128.166L81.848 128.218L81.8906 128.272L81.9332 128.324L81.974 128.376L81.9703 128.424L82.0166 128.429L82.0592 128.481L82.1017 128.533L82.1443 128.587L82.2295 128.689L82.2703 128.742L82.3129 128.794L82.3555 128.848L82.398 128.9L82.4406 128.952L82.4832 129.005L82.5721 129.061L82.6147 129.113L82.6573 129.164L82.7036 129.17L82.7462 129.224L82.7888 129.276L82.8795 129.331L82.874 129.379L82.9629 129.435C83.898 130.259 84.9462 130.8 86.1129 131.059C87.2777 131.318 88.4351 131.268 89.5832 130.905C91.3499 130.383 92.7684 129.237 93.8332 127.47L93.3906 131.905C93.3795 132.029 93.3999 132.127 93.4573 132.198C93.6258 132.407 93.8166 132.426 94.0221 132.253C94.5462 131.766 95.1943 131.337 95.961 130.97C96.4925 130.737 97.3369 130.392 98.4943 129.937C98.5925 129.914 98.661 129.859 98.7017 129.766C98.8221 129.526 98.7777 129.346 98.5647 129.229C98.0184 128.983 97.6851 128.664 97.5647 128.27C97.4795 127.99 97.4499 127.542 97.4795 126.929C98.1851 127.418 99.0203 127.718 99.9832 127.833L100.078 127.842C100.12 127.842 100.161 127.842 100.202 127.842L101.342 129.235L101.433 129.344L101.463 129.381L101.554 129.49L101.585 129.527L101.644 129.602L101.674 129.637L101.735 129.711L101.765 129.748L101.855 129.857L101.885 129.894L101.946 129.968L101.976 130.003L102.074 130.046L102.104 130.083L102.135 130.118L102.226 130.229L102.285 130.303L102.315 130.339L102.381 130.346C103.633 131.527 104.996 132.29 106.467 132.64L106.565 132.685L106.631 132.692L106.728 132.735L106.765 132.703C106.83 132.733 106.885 132.75 106.93 132.755L106.996 132.763L107.063 132.768L107.196 132.781L107.263 132.789L107.33 132.796L107.361 132.833L107.396 132.802L107.463 132.809L107.53 132.816L107.596 132.824L107.663 132.831L107.73 132.839L107.796 132.844L107.863 132.852L107.93 132.859L107.996 132.866L108.065 132.874L108.13 132.881L108.233 132.857L108.3 132.864L108.367 132.872L108.404 132.84L108.47 132.848L108.537 132.855L108.639 132.833L108.67 132.868L108.772 132.844C110.017 132.766 111.141 132.407 112.15 131.766C113.157 131.126 113.939 130.27 114.494 129.205C115.374 127.585 115.567 125.774 115.07 123.768L117.894 127.218C117.972 127.314 118.059 127.368 118.148 127.377C118.415 127.405 118.561 127.285 118.589 127.016C118.615 126.3 118.77 125.54 119.052 124.739C119.263 124.196 119.617 123.355 120.111 122.216C120.165 122.131 120.174 122.042 120.139 121.95C120.052 121.694 119.892 121.6 119.663 121.666C119.102 121.879 118.641 121.89 118.278 121.696C118.018 121.557 117.683 121.263 117.27 120.809C118.115 120.655 118.918 120.277 119.68 119.676L119.752 119.616C119.783 119.587 119.811 119.557 119.839 119.527L121.63 119.705L121.772 119.72L121.818 119.726L121.961 119.739L122.009 119.744L122.104 119.753L122.152 119.759L122.246 119.768L122.294 119.774L122.435 119.787L122.483 119.792L122.578 119.803L122.626 119.807L122.724 119.77L122.818 119.781L122.961 119.794L123.055 119.805L123.104 119.809L123.155 119.766C124.876 119.716 126.38 119.294 127.665 118.502L127.765 118.464L127.818 118.422L127.917 118.385L127.922 118.337C127.989 118.311 128.039 118.285 128.072 118.257L128.126 118.214L128.178 118.172L128.231 118.131L128.333 118.046L128.387 118.003L128.433 118.009L128.439 117.961L128.492 117.918L128.544 117.877L128.596 117.835L128.65 117.792L128.752 117.707L128.805 117.664L128.857 117.622L128.909 117.581L128.963 117.539L129.015 117.496L129.07 117.405L129.124 117.364L129.176 117.322L129.181 117.274L129.233 117.231L129.285 117.189L129.342 117.1L129.389 117.105L129.444 117.014C130.268 116.079 130.809 115.031 131.07 113.864C131.33 112.7 131.278 111.542 130.917 110.396C130.394 108.627 129.248 107.211 127.48 106.146L131.915 106.587C132.041 106.6 132.139 106.577 132.209 106.522C132.417 106.352 132.435 106.163 132.265 105.955C131.776 105.431 131.348 104.785 130.98 104.016C130.746 103.485 130.402 102.64 129.946 101.483C129.924 101.385 129.868 101.316 129.778 101.274C129.535 101.153 129.355 101.2 129.239 101.411C128.994 101.957 128.674 102.29 128.281 102.413C128 102.498 127.552 102.526 126.941 102.498C127.428 101.79 127.73 100.957 127.842 99.9923L127.854 99.8978C127.854 99.8571 127.854 99.8145 127.854 99.7738L129.244 98.633L129.355 98.5441L129.391 98.5126L129.502 98.4219L129.537 98.3923L129.611 98.333L129.648 98.3015L129.722 98.2423L129.757 98.2108L129.868 98.1219L129.904 98.0904L129.978 98.0312L130.013 97.9997L130.057 97.9034L130.092 97.8719L130.13 97.8423L130.239 97.7515L130.313 97.6923L130.348 97.6608L130.355 97.5941C131.537 96.3423 132.302 94.9812 132.65 93.5089L132.692 93.4126L132.7 93.346L132.744 93.2478L132.713 93.2108C132.742 93.1478 132.757 93.0923 132.763 93.0478L132.77 92.9812L132.778 92.9145L132.785 92.8478L132.792 92.7812L132.8 92.7145L132.807 92.6478L132.842 92.6163L132.811 92.5793L132.818 92.5126L132.826 92.446L132.839 92.3126L132.846 92.246L132.854 92.1793L132.861 92.1126L132.868 92.046L132.876 91.9793L132.881 91.9126L132.889 91.846L132.867 91.7441H132.865ZM105.902 74.8775C106.807 72.1719 108.391 70.4867 110.648 69.8219C111.142 69.6497 111.642 69.5571 112.154 69.5441C112.248 69.5552 112.326 69.5608 112.389 69.5682C113.741 69.7034 114.755 70.3589 115.433 71.5386C116.137 72.7534 116.43 74.4515 116.307 76.6293C116.28 76.9126 116.248 77.2275 116.213 77.5719L115.389 85.8293L115.244 87.2923L113.792 88.4793C112.968 88.0052 112.13 87.246 111.274 86.2015L107.368 81.4312C107.35 81.4071 107.33 81.3812 107.309 81.3571L105.48 79.1219L105.904 74.8756L105.902 74.8775ZM86.1906 71.133C86.4184 70.6608 86.7073 70.2404 87.0592 69.87C87.1332 69.8108 87.1925 69.7608 87.2425 69.7219C88.2943 68.8608 89.4758 68.6071 90.7888 68.9626C92.1462 69.3237 93.5517 70.3163 95.0073 71.9441C95.1869 72.1645 95.3888 72.4108 95.6073 72.6793L100.865 79.0997L101.796 80.2386L101.609 82.1034C100.691 82.3515 99.561 82.4071 98.2166 82.2737L92.0832 81.6626C92.0517 81.6589 92.0203 81.6552 91.9888 81.6515L89.1147 81.3663L86.411 78.0626C85.1369 75.5108 85.0666 73.1997 86.1925 71.1349L86.1906 71.133ZM82.2703 101.785L81.6592 107.918C81.6554 107.952 81.6536 107.981 81.6499 108.013L81.3629 110.889L78.061 113.59C75.5073 114.864 73.1962 114.937 71.1314 113.809C70.6592 113.583 70.2388 113.292 69.8703 112.942C69.811 112.868 69.761 112.807 69.7203 112.759C68.8592 111.705 68.6055 110.524 68.961 109.213C69.3221 107.855 70.3166 106.45 71.9425 104.994C72.1629 104.813 72.4073 104.613 72.6758 104.392L79.098 99.1349L80.2369 98.2034L82.1017 98.3904C82.3499 99.3089 82.4055 100.44 82.2703 101.783V101.785ZM81.4314 92.6312C81.4073 92.6515 81.3832 92.6719 81.3573 92.6904L79.1221 94.52L74.8758 94.096C72.1703 93.1923 70.4869 91.6089 69.8221 89.3515C69.6499 88.8571 69.5555 88.3552 69.5443 87.846C69.5536 87.7515 69.561 87.6737 69.5666 87.6108C69.7017 86.2589 70.3592 85.2441 71.5388 84.5663C72.7517 83.8608 74.4499 83.57 76.6295 83.6923C76.911 83.7219 77.2277 83.7515 77.5721 83.7867L85.8295 84.6108L87.2925 84.7571L88.4795 86.2071C88.0036 87.033 87.2462 87.8719 86.1999 88.7256L81.4295 92.6312H81.4314ZM94.098 125.122C93.1925 127.827 91.6092 129.513 89.3517 130.177C88.8573 130.35 88.3573 130.442 87.8462 130.455C87.7517 130.444 87.674 130.439 87.611 130.431C86.2592 130.296 85.2443 129.64 84.5666 128.459C83.8629 127.246 83.5703 125.548 83.6925 123.37C83.7203 123.087 83.7517 122.772 83.7869 122.427L84.611 114.17L84.7554 112.707L86.2073 111.52C87.0314 111.994 87.8703 112.753 88.7258 113.798L92.6314 118.568C92.6499 118.592 92.6703 118.618 92.6906 118.642L94.5184 120.877L94.0962 125.124L94.098 125.122ZM98.1462 110.627L98.1129 110.624V110.655H98.0795L98.0758 110.689L98.0425 110.685L98.0388 110.716H98.0054L97.9684 110.774L97.9332 110.803L97.898 110.833L97.8647 110.863L97.8295 110.892L97.7962 110.889C97.7703 110.929 97.7443 110.961 97.7221 110.979L97.6832 111.04L97.648 111.07L97.6147 111.1L97.5795 111.129C97.5536 111.17 97.5184 111.209 97.4703 111.25C97.4462 111.268 97.4221 111.298 97.3943 111.339L97.361 111.368L97.3221 111.429L97.2869 111.459L97.2499 111.52L97.2147 111.55L97.211 111.583L97.1777 111.613L97.1388 111.672L97.1351 111.705L97.0962 111.766L97.0592 111.827L96.911 111.646L96.8703 111.596L96.7888 111.496L96.748 111.446L96.5425 111.194L96.461 111.094L96.4406 111.07L96.3999 111.018L96.3592 110.968L96.3388 110.944L96.2573 110.844L96.198 110.768L96.1777 110.742L96.1369 110.692L96.0758 110.616L96.0147 110.54L95.9943 110.514L95.9129 110.414L95.8925 110.389L95.8314 110.313L95.7703 110.237L95.7499 110.213L95.6684 110.113L95.6091 110.037L95.5869 110.011L95.548 109.961L95.5073 109.911L95.4462 109.835L95.424 109.809L95.4055 109.783L95.3629 109.733L95.3443 109.707L95.3017 109.657L95.2832 109.631L95.2425 109.581L95.2221 109.555L95.1999 109.531L95.1592 109.479L95.1203 109.429L95.098 109.405L95.0592 109.353L95.0388 109.329L94.9925 109.324L94.9517 109.274L94.911 109.222L94.8295 109.122L94.7888 109.07L94.7684 109.046L94.7277 108.994L94.6869 108.944L94.6666 108.918L94.6462 108.894L94.6258 108.868L94.5851 108.818L94.5647 108.792L94.5443 108.768L94.5036 108.716L94.4832 108.69L94.4629 108.666L94.4221 108.614L94.4017 108.59L94.3814 108.564L94.361 108.54L94.3406 108.514L94.2795 108.439L94.2592 108.413L94.2388 108.389L94.2184 108.363L94.1777 108.313L94.1573 108.287L94.1166 108.237L94.0351 108.137L93.9943 108.087L93.974 108.061L93.9536 108.035L93.9332 108.011L93.9129 107.985L93.8925 107.961L93.8517 107.909L93.811 107.859L93.7443 107.829L93.7036 107.777L93.6629 107.727L93.6425 107.702L93.6221 107.676L93.6017 107.652L93.5573 107.646L93.5369 107.622L93.5166 107.596L93.4962 107.57L93.4758 107.544L93.4555 107.52L93.4092 107.514L93.3888 107.49L93.3684 107.464L93.348 107.439L93.3073 107.389L93.2832 107.409L93.261 107.383L93.2425 107.359L93.2221 107.333L93.1999 107.307L93.1758 107.329L93.1555 107.303C93.1277 107.27 93.0925 107.244 93.048 107.224L93.0277 107.2L93.0073 107.174L92.961 107.168L92.9221 107.118L92.8758 107.113L92.8555 107.089L92.8351 107.063L92.8147 107.037L92.7888 107.057L92.7684 107.033L92.7017 107.002L92.6832 106.977L92.6629 106.952L92.6166 106.946L92.5499 106.916L92.5295 106.89L92.5092 106.866L92.4647 106.861L92.398 106.831L92.3777 106.805L92.311 106.776L92.2666 106.77L92.1999 106.74L92.1795 106.714L92.1592 106.69L92.1129 106.685L92.0684 106.679L92.048 106.655L92.0017 106.65L91.9555 106.644L91.9369 106.62L91.8906 106.614L91.8703 106.589L91.8092 106.561H91.8036L91.7592 106.553L91.7332 106.574L91.7129 106.55L91.6925 106.524L91.6462 106.518L91.6203 106.539L91.6017 106.514L91.5554 106.509L91.5351 106.483L91.4888 106.479L91.4443 106.474L91.398 106.468L91.3517 106.463L91.3314 106.439L91.3073 106.459L91.2869 106.433L91.2406 106.429L91.1943 106.424L91.1499 106.418L91.1036 106.414L91.0832 106.389L91.0573 106.409L91.0369 106.383L91.0129 106.403L90.9925 106.379L90.9666 106.4L90.9462 106.374L90.8758 106.389L90.8295 106.385L90.7832 106.379L90.7388 106.374L90.6925 106.37L90.6721 106.344C90.6258 106.355 90.5869 106.359 90.5555 106.355L90.4851 106.37L90.4388 106.364L90.3943 106.361L90.348 106.355C90.2999 106.366 90.248 106.368 90.1851 106.363C90.1555 106.359 90.1166 106.363 90.0684 106.374L90.024 106.368L89.9517 106.383L89.9073 106.379L89.8351 106.394L89.7906 106.389L89.7647 106.409L89.7184 106.405L89.648 106.42L89.6221 106.44L89.5517 106.457L89.4814 106.472L89.5054 106.239L89.5129 106.174L89.524 106.046L89.5314 105.981L89.5629 105.661L89.574 105.533L89.5777 105.5L89.5851 105.435L89.5925 105.37L89.5962 105.337L89.6073 105.209V105.205L89.6184 105.111L89.6295 105.014L89.6388 104.916L89.6499 104.82V104.787L89.6592 104.722L89.6666 104.659L89.6703 104.626L89.6814 104.527L89.6906 104.431L89.6943 104.398L89.7017 104.333L89.7092 104.268L89.7184 104.172L89.7221 104.139L89.7295 104.074L89.7369 104.011L89.7462 103.913L89.7536 103.848L89.7647 103.752L89.7703 103.687L89.774 103.653L89.7814 103.59L89.7888 103.526L89.7962 103.461L89.8017 103.396L89.8055 103.364L89.8129 103.3L89.8166 103.266L89.7869 103.231L89.7943 103.168L89.7999 103.103L89.8073 103.039L89.8147 102.976L89.8221 102.911L89.8258 102.877L89.8369 102.75L89.8406 102.716L89.8443 102.683L89.848 102.65L89.8554 102.587V102.553L89.861 102.52L89.8684 102.455L89.8721 102.422L89.8758 102.389L89.8832 102.326V102.292L89.8925 102.227L89.8962 102.194L89.9073 102.098L89.911 102.064V102.031L89.9184 101.998L89.924 101.935L89.9277 101.902L89.9351 101.839L89.9425 101.774L89.948 101.711L89.9555 101.646L89.9629 101.581L89.9666 101.548L89.9703 101.516L89.974 101.483V101.45L89.9851 101.352L89.9592 101.285L89.9629 101.252L89.9666 101.218L89.974 101.153V101.12L89.9795 101.089L89.9832 101.055L89.9536 101.02L89.9573 100.987L89.961 100.953L89.9647 100.922L89.9684 100.889V100.855L89.9425 100.82V100.787L89.948 100.753L89.9517 100.722L89.9592 100.657L89.9258 100.653L89.9332 100.589L89.9406 100.526L89.9073 100.522L89.911 100.489C89.9147 100.446 89.9073 100.402 89.8906 100.357L89.8943 100.324L89.898 100.29L89.8684 100.255L89.8758 100.192L89.8462 100.157L89.8499 100.124L89.8573 100.059L89.824 100.055V100.022L89.7999 99.9552L89.8036 99.9219L89.8073 99.8886L89.7777 99.8534L89.7517 99.7867L89.7554 99.7534L89.7592 99.72L89.7295 99.6867L89.7036 99.6182L89.7073 99.5849L89.6814 99.5163L89.6517 99.483L89.6258 99.4145L89.6295 99.3812V99.3478L89.6036 99.3145L89.5721 99.2793L89.5758 99.246L89.5462 99.2126L89.5166 99.1775L89.5203 99.1441L89.4906 99.1089L89.4943 99.0756L89.4703 99.0145V99.0089L89.4388 98.9738L89.4055 98.97L89.4092 98.9367L89.4129 98.9034L89.3832 98.8701L89.3499 98.8663L89.3536 98.833L89.324 98.7978L89.3277 98.7645L89.298 98.7312L89.2684 98.696L89.2388 98.6608L89.2092 98.6275L89.2129 98.5941L89.1795 98.5904L89.1832 98.5571L89.1536 98.5219L89.124 98.4886L89.0943 98.4534L89.0647 98.4182L89.0684 98.3849L89.0351 98.3812L89.0388 98.3478H89.0055L89.0092 98.3145L88.9758 98.3108L88.9795 98.2775L88.9203 98.2386L88.8888 98.2052L88.8592 98.17L88.8295 98.1349L88.7999 98.1015L88.8054 98.0682C88.7647 98.0423 88.7332 98.0163 88.7147 97.9923L88.6536 97.9552L88.624 97.92L88.5943 97.8849L88.5647 97.8515C88.524 97.8256 88.4851 97.7886 88.4443 97.7404C88.4258 97.7182 88.3943 97.6923 88.3554 97.6663L88.324 97.6312L88.2629 97.5941L88.2351 97.5589L88.174 97.52L88.1443 97.4867L88.111 97.483L88.0814 97.4478L88.0203 97.4089H87.9869L87.8647 97.3293L88.0462 97.1812L88.0962 97.1404L88.1962 97.0589L88.2462 97.0182L88.4962 96.8126L88.5962 96.7312L88.6221 96.7108L88.7221 96.6293L88.7462 96.6089L88.8462 96.5275L88.9203 96.4663L88.9443 96.446L88.9962 96.4052L89.1462 96.283L89.1703 96.2626L89.2221 96.2219L89.2721 96.1812L89.2962 96.1608L89.374 96.0997L89.4499 96.0386L89.474 96.0182L89.524 95.9775L89.5758 95.9367L89.6517 95.8756L89.6758 95.8552L89.7277 95.8145L89.7777 95.7737L89.8536 95.7126L89.8795 95.6923L89.9036 95.6719L89.9555 95.6312L89.9795 95.6108L90.0295 95.57L90.0554 95.5497L90.1073 95.5089L90.1314 95.4886L90.1573 95.4682L90.2073 95.4275L90.2592 95.3867L90.2832 95.3663L90.3351 95.3256L90.3592 95.3052L90.3647 95.2608L90.4147 95.2182L90.4647 95.1775L90.5166 95.1367L90.5666 95.0978L90.6184 95.0571L90.6425 95.0367L90.6925 94.996L90.7443 94.9552L90.7684 94.9349L90.7943 94.9126L90.8203 94.8941L90.8703 94.8534L90.8962 94.833L90.9203 94.8108L90.9721 94.7719L90.9962 94.7497L91.0221 94.7312L91.0721 94.6904L91.098 94.67L91.124 94.6478L91.148 94.6293L91.174 94.6089L91.2499 94.5478L91.2999 94.5071L91.3258 94.4867L91.3758 94.446L91.4017 94.4256L91.4517 94.3849L91.5017 94.3441L91.5536 94.3034L91.6036 94.2626L91.6295 94.2423L91.6536 94.2219L91.7054 94.1812L91.7295 94.1608L91.7555 94.1404L91.7814 94.12L91.8314 94.0793L91.861 94.0126L91.8869 93.9923L91.911 93.9719L91.9629 93.9312L91.9888 93.9108L92.0129 93.8904L92.0388 93.87L92.0425 93.8237L92.0684 93.8034L92.0943 93.7849L92.1184 93.7626L92.1443 93.7423L92.1703 93.7237L92.174 93.6775L92.1999 93.6571L92.2258 93.6367L92.2499 93.6163L92.3017 93.5756L92.2814 93.5497L92.3055 93.5293L92.3314 93.5089L92.3573 93.4886L92.3814 93.4682L92.361 93.4423L92.3869 93.4237C92.4203 93.396 92.4462 93.3608 92.4666 93.3163L92.4906 93.296L92.5166 93.2756L92.5221 93.2293L92.5721 93.1886L92.5758 93.1423L92.6017 93.1237L92.6277 93.1034L92.6517 93.0812L92.6332 93.0571L92.6573 93.0367L92.6869 92.97L92.7129 92.9497L92.7388 92.9293L92.7425 92.8849L92.774 92.8182L92.7999 92.7978L92.824 92.7775L92.8295 92.7312L92.8592 92.6663L92.8851 92.646L92.9147 92.5793L92.9203 92.533L92.9499 92.4682L92.9758 92.4478L92.9999 92.4275L93.0055 92.3812L93.011 92.3349L93.0351 92.3145L93.0406 92.27L93.0462 92.2238L93.0703 92.2034L93.0758 92.1571L93.1017 92.1386L93.1277 92.0775L93.1314 92.0719L93.1351 92.0256L93.1166 91.9997L93.1406 91.9812L93.1666 91.9589L93.1721 91.9145L93.1499 91.8886L93.1758 91.8682L93.1814 91.8219L93.2073 91.8034L93.211 91.7571L93.2166 91.7108L93.2203 91.6663L93.2258 91.62L93.2517 91.5997L93.2314 91.5737L93.2554 91.5534L93.261 91.5089L93.2666 91.4626L93.2703 91.4163L93.2758 91.3719L93.3017 91.3515L93.2814 91.3256L93.3055 91.3052L93.2851 91.2793L93.311 91.2589L93.2906 91.2349L93.3166 91.2145L93.2999 91.1423L93.3055 91.0978L93.311 91.0515L93.3147 91.0052L93.3203 90.9608L93.3462 90.9404C93.3351 90.8923 93.3314 90.8552 93.3351 90.8238L93.3203 90.7534L93.324 90.7071L93.3295 90.6608L93.3351 90.6163C93.324 90.5682 93.3221 90.5163 93.3277 90.4534C93.3277 90.4238 93.3277 90.3849 93.3166 90.3367L93.3221 90.2904L93.3055 90.22L93.311 90.1737L93.2962 90.1034L93.2999 90.0571L93.2795 90.033L93.2851 89.9867L93.2703 89.9163L93.248 89.8904L93.2332 89.82L93.2184 89.7478L93.4517 89.7719L93.5147 89.7775L93.6443 89.7904L93.7073 89.7978L94.0295 89.8293L94.1573 89.8423L94.1906 89.846L94.2555 89.8534L94.3184 89.8589L94.3517 89.8626L94.4814 89.8756L94.5758 89.8849L94.6092 89.8886L94.674 89.896L94.7721 89.9071L94.8684 89.9163L94.9017 89.92L94.9666 89.9275L95.0295 89.9349L95.0629 89.9386L95.161 89.9478L95.2573 89.9589L95.2906 89.9626L95.3554 89.9682L95.4184 89.9756L95.5166 89.9867L95.5499 89.9904L95.6147 89.9978L95.6777 90.0034L95.7758 90.0145L95.8092 90.0182L95.8406 90.0219L95.9055 90.0293H95.9388L96.0036 90.0386L96.0351 90.0423L96.0999 90.0497L96.1332 90.0534L96.1666 90.0571L96.2295 90.0626L96.2943 90.07L96.3277 90.0737L96.3925 90.0812L96.4258 90.0849L96.4592 90.0552L96.524 90.0608L96.5888 90.0682L96.6517 90.0756L96.7166 90.083L96.7814 90.0886L96.8147 90.0923L96.8777 90.0997L96.9425 90.1071L96.9758 90.1108L97.0091 90.1145H97.0425L97.1054 90.1238L97.1703 90.1312L97.2351 90.1386L97.2666 90.1423L97.2999 90.146L97.3647 90.1515L97.398 90.1552L97.4314 90.1589L97.4647 90.1626L97.4962 90.1663L97.5943 90.1756L97.6277 90.1793L97.661 90.183L97.6943 90.1867L97.7573 90.1941L97.7906 90.1978L97.8554 90.2034L97.9184 90.2108L97.9832 90.2182L98.048 90.2256L98.0814 90.2293H98.1129L98.1777 90.2386L98.211 90.2423L98.2758 90.2497L98.3388 90.2571L98.4073 90.2312H98.4406L98.474 90.2367L98.5369 90.2441L98.6017 90.2515L98.6351 90.2552L98.6703 90.2256H98.7017L98.7351 90.233H98.7684L98.7999 90.2386L98.8332 90.2423L98.8684 90.2126L98.8999 90.2163L98.9332 90.22L99.0314 90.2293L99.0351 90.1978L99.0684 90.2015H99.1018L99.1332 90.2071L99.1666 90.2108L99.1703 90.1775L99.2036 90.1812C99.2462 90.1867 99.2906 90.1812 99.3351 90.1626L99.3684 90.1663L99.4018 90.17L99.4369 90.1404L99.4999 90.1478L99.5351 90.1163L99.5999 90.1238L99.6332 90.1275V90.0941L99.6666 90.0978L99.7351 90.0719L99.7684 90.0756L99.7999 90.0793L99.8351 90.0497L99.9036 90.0238L99.9369 90.0275H99.9703L100.004 90.0015L100.072 89.9756H100.105L100.172 89.9515L100.207 89.9219L100.276 89.896L100.307 89.8997L100.341 89.9034L100.413 89.846L100.444 89.8497L100.48 89.82L100.515 89.7904L100.548 89.7941L100.581 89.7645L100.615 89.7682L100.678 89.7441H100.683L100.718 89.7126L100.722 89.6793L100.754 89.683L100.787 89.6867L100.822 89.6571L100.826 89.6238L100.859 89.6275L100.892 89.5978L100.926 89.6015L100.961 89.5719L100.996 89.5423L101.03 89.5126L101.065 89.483L101.098 89.4867L101.102 89.4534L101.135 89.4571L101.168 89.4275L101.204 89.3978L101.239 89.3682L101.274 89.3386L101.305 89.3423L101.309 89.3089L101.342 89.3126L101.346 89.2793L101.38 89.283L101.383 89.2497L101.417 89.2534L101.454 89.1923L101.489 89.1626L101.524 89.133L101.557 89.1034L101.592 89.0737L101.626 89.0775C101.652 89.0367 101.678 89.0071 101.7 88.9867L101.739 88.9275L101.774 88.896L101.809 88.8663L101.842 88.8386C101.868 88.7978 101.904 88.7571 101.952 88.7182C101.976 88.6997 102 88.6682 102.028 88.6275L102.061 88.5978L102.1 88.5367L102.135 88.5071L102.172 88.4478L102.207 88.4163L102.211 88.3849L102.246 88.3552L102.283 88.2941L102.287 88.2608L102.326 88.1997L102.363 88.1386L102.511 88.32L102.552 88.3719L102.633 88.4719L102.674 88.5219L102.88 88.7719L102.961 88.8719L102.981 88.8978L103.022 88.9478L103.063 88.9978L103.083 89.0238L103.165 89.1237V89.1275L103.226 89.2015L103.246 89.2256L103.287 89.2756L103.348 89.3515L103.409 89.4275L103.43 89.4534L103.47 89.5034L103.511 89.5552L103.531 89.5793L103.592 89.6552L103.654 89.7312L103.674 89.7571L103.715 89.8071L103.755 89.8571L103.817 89.9349L103.837 89.9589L103.878 90.0089L103.918 90.0608L103.98 90.1367L104 90.1608L104.018 90.1867L104.061 90.2367L104.081 90.2626L104.12 90.3126L104.142 90.3386L104.181 90.3886L104.204 90.4145L104.224 90.4404L104.265 90.4904L104.305 90.5404L104.326 90.5663L104.367 90.6163L104.385 90.6423L104.431 90.6478L104.472 90.6978L104.513 90.7478L104.554 90.7978L104.635 90.8978L104.655 90.9237L104.737 91.0238L104.757 91.0497L104.778 91.0756L104.798 91.0997L104.839 91.1515L104.859 91.1756L104.88 91.2015L104.92 91.2515L104.941 91.2775L104.961 91.3034L105.002 91.3534L105.022 91.3793L105.042 91.4034L105.063 91.4293L105.083 91.4534L105.144 91.5293L105.165 91.5552L105.185 91.5812L105.205 91.6052L105.246 91.6571L105.267 91.6812L105.348 91.7812L105.389 91.8312L105.43 91.883L105.45 91.9071L105.47 91.933L105.491 91.9571L105.511 91.983L105.552 92.0349L105.572 92.0589L105.613 92.1108L105.68 92.1404L105.7 92.1645L105.72 92.1904L105.761 92.2404L105.781 92.2663L105.822 92.3182L105.867 92.3219L105.887 92.3478L105.907 92.3719L105.928 92.3978L105.948 92.4237L105.968 92.4478L106.015 92.4534L106.035 92.4793L106.055 92.5034L106.076 92.5293L106.117 92.5793L106.142 92.5589L106.163 92.5849L106.181 92.6108L106.204 92.6349L106.222 92.6608L106.248 92.6404L106.268 92.6663C106.296 92.6997 106.331 92.7238 106.376 92.7441L106.396 92.77L106.417 92.7941L106.463 92.7997L106.504 92.8515L106.548 92.8552L106.568 92.8812L106.589 92.9071L106.609 92.9312L106.635 92.9108L106.655 92.9367L106.722 92.9663L106.741 92.9923L106.763 93.0182L106.807 93.0219L106.874 93.0515L106.894 93.0775L106.915 93.1034L106.959 93.1071L107.026 93.1386L107.046 93.1626L107.113 93.1941L107.159 93.1978L107.224 93.2293L107.244 93.2534L107.265 93.2793L107.311 93.2849L107.355 93.2886L107.376 93.3145L107.422 93.32L107.467 93.3238L107.489 93.3497L107.533 93.3552L107.554 93.3793L107.615 93.4071H107.62L107.665 93.4145L107.691 93.3941L107.711 93.42L107.731 93.4441L107.778 93.4497L107.804 93.4293L107.824 93.4552L107.868 93.4608L107.889 93.4849L107.935 93.4904L107.981 93.4941L108.026 93.4997L108.072 93.5052L108.092 93.5293L108.118 93.5089L108.137 93.5349L108.183 93.5404L108.23 93.5441L108.274 93.5497L108.32 93.5552L108.341 93.5793L108.367 93.5589L108.387 93.5849L108.411 93.5645L108.431 93.5904L108.457 93.57L108.478 93.5941L108.548 93.5793L108.594 93.5849L108.641 93.5886L108.685 93.5941L108.731 93.5997L108.752 93.6238C108.798 93.6126 108.837 93.6108 108.868 93.6126L108.939 93.596L108.985 93.6015L109.03 93.6071L109.076 93.6108C109.124 93.5997 109.176 93.5997 109.239 93.6034C109.268 93.6071 109.307 93.6034 109.355 93.5923L109.4 93.5978L109.472 93.583L109.517 93.5867L109.589 93.5719L109.633 93.5775L109.659 93.5571L109.705 93.5608L109.776 93.546L109.802 93.5256L109.872 93.5108L109.942 93.4941L109.918 93.7275L109.911 93.7923L109.9 93.92L109.892 93.9849L109.861 94.3071L109.85 94.4349L109.846 94.4682L109.839 94.533L109.831 94.596L109.828 94.6293L109.817 94.7589L109.805 94.8552L109.802 94.8886L109.796 94.9515L109.776 95.146V95.1775L109.767 95.2423L109.759 95.3071L109.755 95.3404L109.744 95.4367L109.735 95.5349L109.731 95.5682L109.724 95.6312L109.717 95.696L109.707 95.7941L109.704 95.8256L109.696 95.8904L109.689 95.9552L109.68 96.0515L109.672 96.1163L109.665 96.1812L109.661 96.2145L109.655 96.2775L109.644 96.3756L109.637 96.4404L109.63 96.5034L109.624 96.5682L109.62 96.6015L109.613 96.6645L109.609 96.6978L109.639 96.733L109.631 96.7978L109.626 96.8608L109.618 96.9256L109.611 96.9904L109.604 97.0534L109.6 97.0867L109.594 97.1515L109.587 97.2163L109.58 97.2793L109.576 97.3126L109.57 97.3775L109.567 97.4108L109.563 97.4441L109.555 97.5071L109.552 97.5404L109.548 97.5738L109.542 97.6386L109.539 97.6719L109.535 97.7052L109.531 97.7367L109.528 97.7701L109.517 97.8682L109.513 97.8997V97.933L109.507 97.9663L109.5 98.0312L109.496 98.0645L109.489 98.1275L109.481 98.1923L109.476 98.2571L109.468 98.3219L109.465 98.3534L109.461 98.3867L109.454 98.4515V98.4849L109.448 98.5182L109.444 98.5497L109.437 98.6145L109.463 98.683L109.459 98.7163L109.455 98.7478L109.45 98.8126L109.446 98.846L109.439 98.9108L109.468 98.9441L109.465 98.9774L109.457 99.0423L109.454 99.0756V99.1089L109.481 99.1423L109.478 99.1756L109.474 99.2089L109.47 99.2423L109.463 99.3071H109.496L109.489 99.3737L109.481 99.4386L109.515 99.4423L109.511 99.4737C109.507 99.5182 109.515 99.5608 109.531 99.6071L109.528 99.6404L109.524 99.6737L109.554 99.7071L109.546 99.7719L109.576 99.8071L109.572 99.8386L109.568 99.8719V99.9052L109.598 99.9089V99.9423L109.622 100.011L109.618 100.042L109.615 100.076L109.644 100.111L109.67 100.177L109.667 100.211L109.663 100.244L109.692 100.279L109.718 100.346L109.715 100.379L109.741 100.448L109.77 100.483L109.796 100.55V100.583L109.791 100.616L109.82 100.652L109.85 100.687L109.846 100.718L109.876 100.753L109.905 100.789L109.902 100.82L109.931 100.855L109.928 100.889L109.952 100.95V100.957L109.983 100.99L110.017 100.994L110.013 101.027L110.009 101.061L110.039 101.096H110.072L110.068 101.129L110.098 101.164L110.094 101.198L110.124 101.233L110.154 101.266L110.183 101.302L110.213 101.337L110.209 101.37L110.242 101.374L110.239 101.405L110.268 101.44L110.298 101.476L110.328 101.511L110.357 101.544L110.354 101.577L110.387 101.581L110.383 101.614L110.417 101.618L110.413 101.652L110.446 101.655L110.442 101.687L110.504 101.726L110.533 101.761L110.563 101.794L110.592 101.829L110.622 101.864L110.618 101.898C110.659 101.924 110.689 101.948 110.707 101.972L110.768 102.011L110.798 102.044L110.828 102.079L110.857 102.114C110.898 102.14 110.937 102.176 110.978 102.224C110.996 102.246 111.028 102.272 111.068 102.298L111.098 102.333L111.157 102.37L111.189 102.405L111.248 102.444L111.278 102.479H111.311L111.341 102.516L111.402 102.555L111.435 102.559L111.494 102.596L111.555 102.635L111.374 102.785L111.324 102.824L111.224 102.905L111.174 102.946L110.922 103.152L110.822 103.233L110.796 103.253L110.696 103.335L110.67 103.355L110.57 103.437L110.496 103.498L110.472 103.518L110.42 103.559L110.27 103.681L110.246 103.702L110.194 103.742L110.144 103.783L110.118 103.803L110.042 103.864L109.968 103.926L109.942 103.946L109.892 103.987L109.841 104.027L109.765 104.089L109.741 104.109L109.689 104.15L109.639 104.19L109.563 104.252L109.537 104.272L109.513 104.292L109.461 104.333L109.437 104.353L109.385 104.394L109.361 104.414L109.309 104.455L109.285 104.476L109.259 104.496L109.159 104.577L109.133 104.598L109.081 104.639L109.057 104.659L109.052 104.705L109.002 104.746L108.952 104.787L108.9 104.827L108.85 104.868L108.8 104.909L108.774 104.929L108.724 104.97L108.672 105.011L108.648 105.031L108.622 105.052L108.596 105.072L108.546 105.113L108.522 105.133L108.496 105.153L108.444 105.194L108.42 105.214L108.394 105.235L108.344 105.276L108.318 105.296L108.294 105.316L108.268 105.337L108.242 105.357L108.167 105.418L108.142 105.439L108.117 105.459L108.091 105.479L108.041 105.52L108.015 105.54L107.965 105.581L107.915 105.622L107.815 105.703L107.791 105.724L107.765 105.744L107.739 105.764L107.713 105.785L107.689 105.805L107.663 105.826L107.637 105.846L107.587 105.887L107.557 105.952L107.531 105.972L107.507 105.992L107.455 106.033L107.43 106.053L107.405 106.074L107.38 106.094L107.376 106.14L107.35 106.161L107.324 106.181L107.3 106.202L107.248 106.242L107.244 106.289L107.218 106.309L107.192 106.329L107.168 106.35L107.118 106.39L107.137 106.414L107.113 106.435L107.087 106.455L107.061 106.476L107.037 106.496L107.057 106.522L107.031 106.542C106.998 106.57 106.972 106.605 106.954 106.65L106.928 106.668L106.902 106.689L106.896 106.735L106.846 106.776L106.842 106.822L106.791 106.863L106.767 106.883L106.787 106.909L106.761 106.927L106.73 106.994L106.705 107.014L106.68 107.035L106.676 107.081L106.644 107.146L106.62 107.168L106.594 107.187L106.589 107.233L106.559 107.3L106.533 107.32L106.504 107.385L106.498 107.431L106.468 107.498L106.442 107.518L106.418 107.539L106.413 107.583L106.409 107.629L106.383 107.65L106.378 107.696L106.372 107.74L106.348 107.761L106.342 107.807L106.317 107.827L106.291 107.887L106.287 107.894L106.281 107.939L106.304 107.964L106.278 107.985L106.252 108.005L106.246 108.05L106.268 108.076L106.242 108.096L106.237 108.142L106.213 108.163L106.207 108.207L106.202 108.253L106.198 108.3L106.192 108.344L106.167 108.366L106.187 108.39L106.163 108.411L106.157 108.457L106.152 108.502L106.148 108.548L106.142 108.594L106.117 108.614L106.137 108.639L106.113 108.659L106.133 108.685L106.107 108.705L106.128 108.731L106.102 108.752L106.118 108.822L106.113 108.868L106.107 108.913L106.104 108.959L106.098 109.005L106.072 109.026C106.083 109.072 106.087 109.111 106.083 109.14L106.098 109.213L106.094 109.259L106.089 109.303L106.083 109.35C106.094 109.396 106.096 109.45 106.092 109.511C106.089 109.542 106.092 109.581 106.104 109.627L106.098 109.674L106.115 109.744L106.109 109.79L106.126 109.861L106.12 109.907L106.141 109.931L106.135 109.977L106.152 110.05L106.17 110.074L106.187 110.146L106.202 110.216L105.968 110.194L105.905 110.187L105.776 110.174L105.713 110.168L105.391 110.135L105.263 110.122L105.23 110.118L105.165 110.113L105.1 110.105L105.068 110.102L104.939 110.09L104.844 110.079L104.811 110.076L104.746 110.068L104.65 110.059L104.552 110.048L104.518 110.044L104.454 110.037L104.391 110.029H104.357L104.259 110.018L104.163 110.009L104.13 110.003L104.065 109.998L104.002 109.99L103.904 109.981L103.87 109.976L103.807 109.97L103.742 109.963L103.644 109.952L103.611 109.948H103.58L103.515 109.939L103.481 109.935L103.417 109.927L103.385 109.924L103.32 109.918L103.287 109.914L103.254 109.911L103.189 109.903L103.126 109.896H103.092L103.028 109.887L102.996 109.883L102.961 109.913L102.896 109.905L102.768 109.894L102.704 109.887L102.639 109.879L102.605 109.876L102.542 109.868L102.478 109.861L102.413 109.855L102.38 109.852L102.317 109.844L102.252 109.837L102.187 109.831L102.154 109.827L102.122 109.824L102.057 109.816L102.024 109.813L101.961 109.805H101.928L101.83 109.794L101.796 109.79L101.763 109.787L101.731 109.783L101.667 109.777L101.633 109.774L101.568 109.766L101.505 109.759L101.441 109.752L101.376 109.746L101.311 109.739L101.28 109.735L101.246 109.731L101.181 109.724H101.148L101.085 109.714L101.017 109.74L100.983 109.737L100.95 109.733L100.887 109.726L100.854 109.722H100.82L100.787 109.716L100.752 109.746L100.718 109.742L100.687 109.739L100.654 109.735L100.622 109.731L100.589 109.727L100.554 109.757L100.522 109.753H100.489L100.455 109.746L100.391 109.74L100.387 109.772H100.355L100.257 109.761L100.254 109.794L100.22 109.79C100.178 109.787 100.133 109.79 100.089 109.809L100.055 109.805H100.022L99.9869 109.833L99.924 109.826L99.8888 109.855L99.824 109.848L99.7925 109.844L99.7888 109.877L99.7555 109.874L99.6869 109.9H99.6536L99.6203 109.892L99.5869 109.924L99.5184 109.948H99.4851L99.4536 109.942L99.4184 109.972L99.3499 109.998L99.3166 109.994L99.2499 110.02L99.2147 110.05L99.1462 110.076L99.1147 110.072L99.0814 110.068L99.0092 110.126L98.9777 110.122L98.9425 110.152L98.9073 110.181L98.874 110.177L98.8406 110.207H98.8073L98.7443 110.227L98.7388 110.231L98.7036 110.259L98.6999 110.292H98.6684L98.6351 110.287L98.5999 110.316L98.5962 110.348H98.5629L98.5295 110.374H98.4962L98.461 110.402L98.4258 110.431L98.3925 110.461L98.3573 110.489H98.324L98.3203 110.52L98.2869 110.516L98.2536 110.546L98.2184 110.576L98.1832 110.603L98.148 110.635L98.1462 110.627ZM113.809 128.866C113.581 129.339 113.292 129.759 112.941 130.129C112.867 130.189 112.807 130.239 112.757 130.277C111.705 131.139 110.524 131.392 109.211 131.037C107.854 130.676 106.448 129.683 104.992 128.057C104.813 127.837 104.611 127.59 104.391 127.322L99.1351 120.902L98.2036 119.763L98.3906 117.898C99.3092 117.65 100.439 117.594 101.783 117.727L107.917 118.339C107.948 118.342 107.98 118.346 108.011 118.35L110.885 118.635L113.589 121.939C114.863 124.49 114.933 126.802 113.807 128.866H113.809ZM130.178 110.648C130.35 111.142 130.444 111.642 130.455 112.152C130.446 112.246 130.439 112.324 130.433 112.387C130.298 113.739 129.641 114.753 128.461 115.431C127.248 116.137 125.55 116.427 123.37 116.307C123.089 116.277 122.772 116.248 122.428 116.213L114.17 115.389L112.707 115.242L111.522 113.792C111.996 112.966 112.754 112.127 113.8 111.274L118.57 107.368C118.594 107.348 118.618 107.327 118.644 107.309L120.88 105.479L125.126 105.903C127.831 106.807 129.515 108.39 130.18 110.65L130.178 110.648ZM131.039 90.7867C130.678 92.1441 129.683 93.5497 128.057 95.0052C127.837 95.1867 127.592 95.3867 127.324 95.6071L120.902 100.864L119.765 101.796L117.898 101.609C117.65 100.69 117.594 99.5589 117.73 98.2163L118.341 92.083C118.341 92.0515 118.346 92.02 118.35 91.9867L118.637 89.1145L121.939 86.4108C124.492 85.1367 126.804 85.0645 128.868 86.1923C129.341 86.42 129.761 86.7071 130.13 87.0589C130.189 87.133 130.239 87.1941 130.28 87.2423C131.141 88.296 131.394 89.4775 131.039 90.7886V90.7867Z" fill="#55142A"/>
</svg>
